<?xml version="1.0" encoding="UTF-8" standalone="no"?>
<svg
   xmlns:dc="http://purl.org/dc/elements/1.1/"
   xmlns:cc="http://creativecommons.org/ns#"
   xmlns:rdf="http://www.w3.org/1999/02/22-rdf-syntax-ns#"
   xmlns:svg="http://www.w3.org/2000/svg"
   xmlns="http://www.w3.org/2000/svg"
   xmlns:sodipodi="http://sodipodi.sourceforge.net/DTD/sodipodi-0.dtd"
   xmlns:inkscape="http://www.inkscape.org/namespaces/inkscape"
   width="488"
   height="404"
   id="svg2"
   version="1.1"
   inkscape:version="0.48.4 r9939"
   sodipodi:docname="Fwd-2016-Newest-Popular-handbag-designs-from-Ceso-19-2016022459 (1).svg">
  <metadata
     id="metadata906">
    <rdf:RDF>
      <cc:Work
         rdf:about="">
        <dc:format>image/svg+xml</dc:format>
        <dc:type
           rdf:resource="http://purl.org/dc/dcmitype/StillImage" />
        <dc:title></dc:title>
      </cc:Work>
    </rdf:RDF>
  </metadata>
  <defs
     id="defs904" />
  <sodipodi:namedview
     pagecolor="#ffffff"
     bordercolor="#666666"
     borderopacity="1"
     objecttolerance="10"
     gridtolerance="10"
     guidetolerance="10"
     inkscape:pageopacity="0"
     inkscape:pageshadow="2"
     inkscape:window-width="640"
     inkscape:window-height="480"
     id="namedview902"
     showgrid="false"
     inkscape:zoom="0.58415842"
     inkscape:cx="244"
     inkscape:cy="202"
     inkscape:window-x="840"
     inkscape:window-y="141"
     inkscape:window-maximized="0"
     inkscape:current-layer="svg2" />
  <g
     id="g4245">
    <path
       inkscape:connector-curvature="0"
       id="path6"
       d="m 238,7 c 7.2232,2.2511068 16.74396,0.7612804 0,0 z"
       style="fill:#f3d8c4;stroke:none" />
    <path
       inkscape:connector-curvature="0"
       id="path8"
       d="m 230,8 c -3.33706,13.865785 7.06391,-2.4141872 1.35163,0.2703254 L 230.1355,8.0271006 230,8 z"
       style="fill:#989390;stroke:none" />
    <path
       inkscape:connector-curvature="0"
       id="path10"
       d="m 232,11 c 10.83031,0.537609 23.32469,-3.2530838 3.31014,-2.4081484 L 232,11 z"
       style="fill:#d06477;stroke:none" />
    <path
       inkscape:connector-curvature="0"
       id="path12"
       d="m 246,8 c 5.16331,9.183713 9.16108,9.537127 0,0 z"
       style="fill:#5e4547;stroke:none" />
    <path
       inkscape:connector-curvature="0"
       id="path14"
       d="m 231,9 c 0.10954,14.970654 -29.65314,7.563132 -36.12828,23.860383 -25.31658,27.017058 -31.25766,65.980319 -28.476,101.631907 -5.36313,12.8903 3.6656,17.23824 13.94942,21.63161 6.30713,-1.15996 1.90455,-12.53495 4.8826,1.4703 7.46354,18.86394 -3.97486,-29.33741 -8.22774,-10.63337 -0.78579,6.28891 -13.31672,-5.30122 -9,-11.64229 -0.16654,-13.66392 2.94965,12.59835 1.70381,-8.55691 -5.05324,-38.575904 9.06091,-84.164697 45.13235,-103.305212 8.80427,-4.207259 20.05294,-7.879564 15.13967,5.927641 4.1975,3.941306 0.33245,-14.136452 1.05449,-19.6867381 L 231,9 z"
       style="fill:#250e14;stroke:none" />
    <path
       inkscape:connector-curvature="0"
       id="path16"
       d="M 236,22 C 252.30765,23.328654 250.63066,2.5239093 234.965,11.544089 230.1627,13.656254 233.40727,19.672161 236,22 z"
       style="fill:#e13c7b;stroke:none" />
    <path
       inkscape:connector-curvature="0"
       id="path18"
       d="m 232,14 c -3.84778,14.406393 14.58057,16.378108 15.77421,6.188583 C 239.26866,21.555105 234.68818,24.404805 232,14 z"
       style="fill:#b92359;stroke:none" />
    <path
       inkscape:connector-curvature="0"
       id="path20"
       d="m 226.667,15.3333 c 0.222,0.111133 0.222,0.111133 0,0 z"
       style="fill:#dcadb7;stroke:none" />
    <path
       inkscape:connector-curvature="0"
       id="path22"
       d="m 228,15 c 0.372,2.717707 5.5316,0.120735 0,0 z"
       style="fill:#5e4547;stroke:none" />
    <path
       inkscape:connector-curvature="0"
       id="path24"
       d="m 249,15 c -0.776,8.563737 1.24318,18.640982 1,4.318542 31.37376,-0.314321 54.04011,29.538866 62.20727,57.638942 C 317.80745,91.42838 318.38459,109.43374 321,123 325.06216,91.122052 313.69922,55.643553 288.71733,34.472247 277.30295,24.879916 263.42077,18.536396 249,15 z"
       style="fill:#333232;stroke:none" />
    <path
       inkscape:connector-curvature="0"
       id="path26"
       d="m 224.667,16.3333 c 0.222,0.111133 0.222,0.111133 0,0 z"
       style="fill:#736f71;stroke:none" />
    <path
       inkscape:connector-curvature="0"
       id="path30"
       d="m 258.667,17.3333 c 0.222,0.111133 0.222,0.111133 0,0 z"
       style="fill:#b4b3b3;stroke:none" />
    <path
       inkscape:connector-curvature="0"
       id="path34"
       d="m 261,18 c 0.372,2.717707 5.5316,0.120735 0,0 z"
       style="fill:#b4b3b3;stroke:none" />
    <path
       inkscape:connector-curvature="0"
       id="path40"
       d="m 216.667,19.3333 c 0.222,0.111133 0.222,0.111133 0,0 z"
       style="fill:#b5697f;stroke:none" />
    <path
       inkscape:connector-curvature="0"
       id="path42"
       d="m 224,20 c 10.40107,5.529089 -4.42337,6.65666 -9.96956,9.987823 2.87725,-0.03101 16.95319,1.206234 16.38043,-5.685692 C 232.49942,16.787557 229.58258,19.543095 224,20 z"
       style="fill:#9d1f4c;stroke:none" />
    <path
       inkscape:connector-curvature="0"
       id="path44"
       d="m 250,19 c -0.56369,17.140118 1.66388,-2.888045 -8.1825,7.0645 -6.93655,0.454792 -12.4402,-4.291661 -6.33708,1.9355 20.29716,-0.09561 -2.50107,0.214686 -1.00428,4.145655 14.18696,1.198787 28.74379,-1.946481 39.66074,10.16639 7.57233,7.106226 24.01878,19.85422 9.99732,3.940644 C 276.96652,31.246353 249.72485,36.100735 250.04129,19.37164 L 250,19 z"
       style="fill:#911023;stroke:none" />
    <path
       inkscape:connector-curvature="0"
       id="path46"
       d="m 251,19 c -3.12584,9.432163 5.10885,12.014472 12.06503,15.367657 C 271.04336,38.578438 279.02168,42.789219 287,47 285.28483,37.661421 241.48962,20.281386 265.72899,24.945799 275.98327,26.3791 291.09399,50.48547 295.14411,44.319859 284.60589,30.665488 268.488,20.188384 251,19 z"
       style="fill:#b92359;stroke:none" />
    <path
       inkscape:connector-curvature="0"
       id="path48"
       d="m 264.667,19.3333 c 0.222,0.111133 0.222,0.111133 0,0 z"
       style="fill:#b4b3b3;stroke:none" />
    <path
       inkscape:connector-curvature="0"
       id="path52"
       d="m 214.667,20.3333 c 0.222,0.111133 0.222,0.111133 0,0 z"
       style="fill:#b5697f;stroke:none" />
    <path
       inkscape:connector-curvature="0"
       id="path56"
       d="m 211.667,21.3333 c 0.222,0.111133 0.222,0.111133 0,0 z"
       style="fill:#da8f81;stroke:none" />
    <path
       inkscape:connector-curvature="0"
       id="path58"
       d="m 177,150 c 0.28268,-15.26611 -7.26507,-29.39154 -3.76701,-45.23823 C 175.77919,72.701016 194.48677,35.864488 229,30 c 2.2729,-7.627278 -19.48523,5.01557 -12.69699,-0.921204 11.08406,-1.885193 16.74102,-9.996997 0.64112,-6.682956 -41.45608,19.626171 -52.2739,71.44333 -46.65488,113.18866 1.03053,5.19447 2.60605,10.75318 6.71075,14.4155 z"
       style="fill:#b13763;stroke:none" />
    <path
       inkscape:connector-curvature="0"
       id="path60"
       d="m 268.667,21.3333 c 0.222,0.111133 0.222,0.111133 0,0 z"
       style="fill:#736f71;stroke:none" />
    <path
       inkscape:connector-curvature="0"
       id="path62"
       d="m 210.667,22.3333 c 0.222,0.111133 0.222,0.111133 0,0 z"
       style="fill:#975d66;stroke:none" />
    <path
       inkscape:connector-curvature="0"
       id="path64"
       d="m 271.667,22.3333 c 0.222,0.111133 0.222,0.111133 0,0 z"
       style="fill:#b4b3b3;stroke:none" />
    <path
       inkscape:connector-curvature="0"
       id="path70"
       d="m 208.667,23.3333 c 0.222,0.111133 0.222,0.111133 0,0 z"
       style="fill:#975d66;stroke:none" />
    <path
       inkscape:connector-curvature="0"
       id="path72"
       d="m 256,23 c 10.53497,7.482065 22.60539,14.76031 31,24 3.22639,9.501452 8.54861,18.053479 13,27 11.29578,15.827394 6.54521,50.12112 10.24021,70 5.6161,-1.64215 5.91708,-15.67352 4.07771,-21.21861 C 311.51931,103.16784 314.37226,81.085218 301,67 302.30405,60.738623 296.15901,59.117063 298.89072,50.781448 287.99947,41.904306 277.07213,27.21593 262.48713,24.297426 260.32475,23.864951 258.16238,23.432475 256,23 z"
       style="fill:#e13c7b;stroke:none" />
    <path
       inkscape:connector-curvature="0"
       id="path74"
       d="m 273,23 c 1.57331,1.573309 0.89617,0.896167 0,0 z"
       style="fill:#736f71;stroke:none" />
    <path
       inkscape:connector-curvature="0"
       id="path80"
       d="m 206.667,24.3333 c 0.222,0.111133 0.222,0.111133 0,0 z"
       style="fill:#975d66;stroke:none" />
    <path
       inkscape:connector-curvature="0"
       id="path82"
       d="m 277,25 c 1.57331,1.573309 0.89617,0.896167 0,0 z"
       style="fill:#989390;stroke:none" />
    <path
       inkscape:connector-curvature="0"
       id="path86"
       d="m 164,88 c 3.91495,-1.993725 3.63989,-19.362352 7,-16 5.37199,-16.887257 20.1827,-31.072181 32,-45 -22.07197,11.417482 -36.7939,36.613065 -39,61 z"
       style="fill:#d06477;stroke:none" />
    <path
       inkscape:connector-curvature="0"
       id="path88"
       d="m 232,30 c 11.9061,0.532648 21.34032,-4.285917 0,0 z"
       style="fill:#b13763;stroke:none" />
    <path
       inkscape:connector-curvature="0"
       id="path90"
       d="m 282,28 c 1.57331,1.573309 0.89617,0.896167 0,0 z"
       style="fill:#b4b3b3;stroke:none" />
    <path
       inkscape:connector-curvature="0"
       id="path94"
       d="m 283,29 c 1.57331,1.573309 0.89617,0.896167 0,0 z"
       style="fill:#989390;stroke:none" />
    <path
       inkscape:connector-curvature="0"
       id="path96"
       d="m 179,80 c 9.8929,-20.30675 25.79576,-42.911205 50,-49 -22.53115,1.204958 -41.62359,21.745325 -48.72479,42.370518 L 179.48918,76.674357 179,80 z"
       style="fill:#911023;stroke:none" />
    <path
       inkscape:connector-curvature="0"
       id="path98"
       d="m 227,31 c 0.372,2.717707 5.5316,0.120735 0,0 z"
       style="fill:#da8f81;stroke:none" />
    <path
       inkscape:connector-curvature="0"
       id="path100"
       d="m 249.333,31.6667 0.334,0.6666 -0.334,-0.6666 0,0 z"
       style="fill:#b4b3b3;stroke:none" />
    <path
       inkscape:connector-curvature="0"
       id="path104"
       d="m 251,31 c 0.372,2.717707 5.5316,0.120735 0,0 z"
       style="fill:#dcadb7;stroke:none" />
    <path
       inkscape:connector-curvature="0"
       id="path106"
       d="m 286,31 c 1.57331,1.573309 0.89617,0.896167 0,0 z"
       style="fill:#989390;stroke:none" />
    <path
       inkscape:connector-curvature="0"
       id="path110"
       d="m 223,32 c 0.372,2.717707 5.5316,0.120735 0,0 z"
       style="fill:#989390;stroke:none" />
    <path
       inkscape:connector-curvature="0"
       id="path112"
       d="m 230,32 c 2.42501,2.235754 23.88031,0.612076 9.81103,0.61319 C 236.54069,32.408793 233.27034,32.204397 230,32 z"
       style="fill:#dcadb7;stroke:none" />
    <path
       inkscape:connector-curvature="0"
       id="path114"
       d="m 246.667,32.3333 c 0.222,0.111133 0.222,0.111133 0,0 z"
       style="fill:#975d66;stroke:none" />
    <path
       inkscape:connector-curvature="0"
       id="path116"
       d="m 254,32 c 0.372,2.717707 5.5316,0.120735 0,0 z"
       style="fill:#dcadb7;stroke:none" />
    <path
       inkscape:connector-curvature="0"
       id="path118"
       d="m 287,32 c 1.57331,1.573309 0.89617,0.896167 0,0 z"
       style="fill:#989390;stroke:none" />
    <path
       inkscape:connector-curvature="0"
       id="path120"
       d="m 221.667,33.3333 c 0.222,0.111133 0.222,0.111133 0,0 z"
       style="fill:#dcadb7;stroke:none" />
    <path
       inkscape:connector-curvature="0"
       id="path122"
       d="m 258.667,33.3333 c 0.222,0.111133 0.222,0.111133 0,0 z"
       style="fill:#b5697f;stroke:none" />
    <path
       inkscape:connector-curvature="0"
       id="path124"
       d="m 288,33 c 1.57331,1.573309 0.89617,0.896167 0,0 z"
       style="fill:#736f71;stroke:none" />
    <path
       inkscape:connector-curvature="0"
       id="path126"
       d="m 261.667,34.3333 c 0.222,0.111133 0.222,0.111133 0,0 z"
       style="fill:#975d66;stroke:none" />
    <path
       inkscape:connector-curvature="0"
       id="path130"
       d="m 192,37 c 2.43041,-1.620276 5.21007,-3.473382 0,0 z"
       style="fill:#6c132f;stroke:none" />
    <path
       inkscape:connector-curvature="0"
       id="path132"
       d="m 216.667,35.3333 c 0.222,0.111133 0.222,0.111133 0,0 z"
       style="fill:#dcadb7;stroke:none" />
    <path
       inkscape:connector-curvature="0"
       id="path152"
       d="m 276,42 c 1.57331,1.573309 0.89617,0.896167 0,0 z"
       style="fill:#da8f81;stroke:none" />
    <path
       inkscape:connector-curvature="0"
       id="path160"
       d="m 296,48 c 2.13309,7.641725 15.66541,24.167169 6.65238,5.983787 L 299.67892,50.582361 296,48 z"
       style="fill:#b13763;stroke:none" />
    <path
       inkscape:connector-curvature="0"
       id="path162"
       d="m 302,48 c 1.57331,1.573309 0.89617,0.896167 0,0 z"
       style="fill:#736f71;stroke:none" />
    <path
       inkscape:connector-curvature="0"
       id="path166"
       d="m 304,51 c 1.57331,1.573309 0.89617,0.896167 0,0 z"
       style="fill:#736f71;stroke:none" />
    <path
       inkscape:connector-curvature="0"
       id="path170"
       d="m 297,54 c 1.60458,8.242652 4.83563,10.434429 8.24302,17.742766 9.4209,16.057948 7.93015,37.223834 10.55309,55.480564 0.33621,5.84225 -5.05659,19.36566 -3.36386,18.29022 7.00603,-8.89364 4.4206,-30.04667 3.979,-43.62099 C 314.84283,86.066962 310.31221,67.439333 301.98521,58.466733 300.73235,55.968603 300.62554,52.860789 297,54 z"
       style="fill:#f55793;stroke:none" />
    <path
       inkscape:connector-curvature="0"
       id="path172"
       d="m 307,55 c 1.57331,1.573309 0.89617,0.896167 0,0 z"
       style="fill:#989390;stroke:none" />
    <path
       inkscape:connector-curvature="0"
       id="path186"
       d="m 310,60 c 1.57331,1.573309 0.89617,0.896167 0,0 z"
       style="fill:#989390;stroke:none" />
    <path
       inkscape:connector-curvature="0"
       id="path190"
       d="m 307,62 c 2.66667,11 5.33333,22 8,33 2.52403,-9.368221 -1.72429,-23.96217 -8,-33 z"
       style="fill:#e13c7b;stroke:none" />
    <path
       inkscape:connector-curvature="0"
       id="path198"
       d="m 173,65 c -0.79892,5.68553 1.94012,4.84109 0,0 z"
       style="fill:#b13763;stroke:none" />
    <path
       inkscape:connector-curvature="0"
       id="path206"
       d="m 168.333,69.6667 c 0.11133,0.2222 0.11133,0.2222 0,0 z"
       style="fill:#e68aae;stroke:none" />
    <path
       inkscape:connector-curvature="0"
       id="path210"
       d="m 170,70 c -5.85043,17.771246 -8.63997,54.02942 -5.83366,62.52517 C 165.86863,111.65193 165.98628,90.612874 170,70 z"
       style="fill:#f55793;stroke:none" />
    <path
       inkscape:connector-curvature="0"
       id="path212"
       d="m 316.333,72.6667 c 0.11133,0.2222 0.11133,0.2222 0,0 z"
       style="fill:#b5697f;stroke:none" />
    <path
       inkscape:connector-curvature="0"
       id="path214"
       d="m 182.333,73.6667 c 0.11133,0.2222 0.11133,0.2222 0,0 z"
       style="fill:#dcadb7;stroke:none" />
    <path
       inkscape:connector-curvature="0"
       id="path216"
       d="m 301,73 c 0.77602,5.012591 6.72189,22.474231 3.03906,9.117176 C 303.02604,79.078117 302.01302,76.039059 301,73 z"
       style="fill:#9d1f4c;stroke:none" />
    <path
       inkscape:connector-curvature="0"
       id="path218"
       d="m 166.333,74.6667 c 0.11133,0.2222 0.11133,0.2222 0,0 z"
       style="fill:#e68aae;stroke:none" />
    <path
       inkscape:connector-curvature="0"
       id="path220"
       d="m 170,74 c -0.79892,5.68553 1.94012,4.84109 0,0 z"
       style="fill:#b13763;stroke:none" />
    <path
       inkscape:connector-curvature="0"
       id="path222"
       d="m 317.333,74.6667 c 0.11133,0.2222 0.11133,0.2222 0,0 z"
       style="fill:#da8f81;stroke:none" />
    <path
       inkscape:connector-curvature="0"
       id="path224"
       d="m 317,76 c 5.4765,21.994464 3.80486,47.258 6,68 1.74836,-21.78323 3.01571,-44.956932 -4.47478,-65.763192 L 317,76 z"
       style="fill:#b13763;stroke:none" />
    <path
       inkscape:connector-curvature="0"
       id="path226"
       d="m 169,78 c -1.66013,6.607976 -1.89256,21.152235 -0.46983,6.577661 C 168.68678,82.385107 168.84339,80.192554 169,78 z"
       style="fill:#5e4547;stroke:none" />
    <path
       inkscape:connector-curvature="0"
       id="path228"
       d="m 179.333,80.6667 c 0.11133,0.2222 0.11133,0.2222 0,0 z"
       style="fill:#da8f81;stroke:none" />
    <path
       inkscape:connector-curvature="0"
       id="path236"
       d="m 320.333,83.6667 c 0.11133,0.2222 0.11133,0.2222 0,0 z"
       style="fill:#dcadb7;stroke:none" />
    <path
       inkscape:connector-curvature="0"
       id="path242"
       d="m 163,84 c -0.79892,5.68553 1.94012,4.84109 0,0 z m 141.333,0.6667 0.334,0.6666 -0.334,-0.6666 z"
       style="fill:#da8f81;stroke:none" />
    <path
       inkscape:connector-curvature="0"
       id="path260"
       d="m 319,86 c 0.56082,8.399449 3.11195,9.016755 0,0 z"
       style="fill:#9d1f4c;stroke:none" />
    <path
       inkscape:connector-curvature="0"
       id="path268"
       d="m 162,88 c -0.70598,5.652581 1.82234,9.4041 0,0 z"
       style="fill:#e68aae;stroke:none" />
    <path
       inkscape:connector-curvature="0"
       id="path270"
       d="m 163,88 c -0.40177,18.20621 -5.24302,37.0463 -2.09944,54.84792 7.81574,5.02377 3.1876,-12.77469 2.20489,-10.32609 C 163.73697,117.68122 164.36848,102.84061 165,88 L 163.75979,88 163,88 z"
       style="fill:#e13c7b;stroke:none" />
    <path
       inkscape:connector-curvature="0"
       id="path272"
       d="m 305,88 c -0.97521,3.827761 2.27142,4.409882 0,0 z"
       style="fill:#da8f81;stroke:none" />
    <path
       inkscape:connector-curvature="0"
       id="path274"
       d="m 316,88 c -0.5571,5.116062 0.72102,22.82601 0.58751,8.812693 C 316.39168,93.875129 316.19584,90.937564 316,88 z"
       style="fill:#9d1f4c;stroke:none" />
    <path
       inkscape:connector-curvature="0"
       id="path298"
       d="m 306,92 c -0.70598,5.652581 1.82234,9.4041 0,0 z"
       style="fill:#dcadb7;stroke:none" />
    <path
       inkscape:connector-curvature="0"
       id="path304"
       d="m 166,93 c -0.33333,17.33333 -0.66667,34.66667 -1,52 2.331,-5.44419 0.33728,-15.21358 1.00248,-22.32375 C 166.00494,112.78417 166.0032,102.89208 166,93 z"
       style="fill:#9d1f4c;stroke:none" />
    <path
       inkscape:connector-curvature="0"
       id="path316"
       d="m 161,94 c -0.79892,5.68553 1.94012,4.84109 0,0 z"
       style="fill:#b5697f;stroke:none" />
    <path
       inkscape:connector-curvature="0"
       id="path326"
       d="m 323,97 c -1.0258,5.15297 2.05652,8.44232 0,0 z"
       style="fill:#dcadb7;stroke:none" />
    <path
       inkscape:connector-curvature="0"
       id="path334"
       d="m 160,98 c -0.79892,5.68553 1.94012,4.84109 0,0 z"
       style="fill:#dcadb7;stroke:none" />
    <path
       inkscape:connector-curvature="0"
       id="path336"
       d="m 161,98 c -2,15 -4,30 -6,45 10.14335,-11.09191 4.43726,-31.03074 6,-45 z"
       style="fill:#b13763;stroke:none" />
    <path
       inkscape:connector-curvature="0"
       id="path338"
       d="m 173,98 c 0,9.33333 0,18.66667 0,28 2.13608,-5.44072 -0.20741,-15.20388 0.20323,-22.30953 C 173.13549,101.79365 173.06774,99.896825 173,98 z"
       style="fill:#dcadb7;stroke:none" />
    <path
       inkscape:connector-curvature="0"
       id="path340"
       d="m 307,98 c -0.3347,4.24417 0.28086,24.26824 0.70869,12.04773 C 307.47246,106.03182 307.23623,102.01591 307,98 z"
       style="fill:#da8f81;stroke:none" />
    <path
       inkscape:connector-curvature="0"
       id="path342"
       d="m 308,98 c 1.99091,9.99835 -5.54847,41.78245 -2,38.27938 2.92133,-10.62375 -2.00139,14.32985 -2.83973,19.98549 -4.83206,18.7534 8.956,-10.34906 6.6731,-16.57292 C 310.20511,125.85448 313.34108,111.29615 308,98 z"
       style="fill:#b92359;stroke:none" />
    <path
       inkscape:connector-curvature="0"
       id="path346"
       d="m 321,100 c -0.77356,8.23547 1.86268,12.26833 0,0 z"
       style="fill:#250e14;stroke:none" />
    <path
       inkscape:connector-curvature="0"
       id="path350"
       d="m 324,103 c -0.5841,11.39394 1.70248,10.82905 0,0 z m -165,1 c -0.79892,5.68553 1.94012,4.84109 0,0 z"
       style="fill:#dcadb7;stroke:none" />
    <path
       inkscape:connector-curvature="0"
       id="path352"
       d="m 317,104 c 5.71793,7.79709 -4.19447,43.02986 -0.72173,36.2898 C 317.18551,128.1932 318.09276,116.0966 319,104 l -1.24021,0 L 317,104 z"
       style="fill:#b13763;stroke:none" />
    <path
       inkscape:connector-curvature="0"
       id="path354"
       d="m 317,107 c -0.0518,3.84092 -0.21343,23.74774 0.79362,14.2851 C 317.52908,116.5234 317.26454,111.7617 317,107 z"
       style="fill:#e13c7b;stroke:none" />
    <path
       inkscape:connector-curvature="0"
       id="path356"
       d="m 322,109 c 0.12003,6.14737 -2.03064,21.27226 -2,7 -3.04992,5.39643 -2.34627,15.08012 -3.95039,22.12792 -4.6179,9.71824 7.11135,7.39154 6.23463,17.24764 1.26666,6.42117 5.66873,20.68769 4.45201,6.18787 1.03269,-10.64503 -6.86807,-19.70379 -4.67898,-30.48506 C 322.03818,123.71891 322.01909,116.35946 322,109 z"
       style="fill:#250e14;stroke:none" />
    <path
       inkscape:connector-curvature="0"
       id="path358"
       d="m 166,112 c 0,10.66667 0,21.33333 0,32 2.16035,-5.44153 -0.1396,-15.20616 0.30272,-22.31286 C 166.20182,118.4581 166.10091,115.22905 166,112 z"
       style="fill:#6c132f;stroke:none" />
    <path
       inkscape:connector-curvature="0"
       id="path360"
       d="m 306,115 c -0.89808,5.10235 -0.79857,22.82497 0,8.79896 0,-2.93299 0,-5.86597 0,-8.79896 z"
       style="fill:#e68aae;stroke:none" />
    <path
       inkscape:connector-curvature="0"
       id="path362"
       d="m 325,115 c 0,8 0,16 0,24 2.10375,-5.43947 -0.29776,-15.20039 0.0707,-22.3044 l -0.0516,-1.23913 L 325,115 z"
       style="fill:#f3d8c4;stroke:none" />
    <path
       inkscape:connector-curvature="0"
       id="path364"
       d="m 158,120 c -0.56419,5.1931 0.74281,23.81521 0.61319,9.81103 C 158.40879,126.54069 158.2044,123.27034 158,120 z"
       style="fill:#9d1f4c;stroke:none" />
    <path
       inkscape:connector-curvature="0"
       id="path366"
       d="m 320,124 c 0.58149,4.69622 -2.99741,20.44222 0.93482,17.76151 C 320.62321,135.841 320.31161,129.9205 320,124 z"
       style="fill:#5e4547;stroke:none" />
    <path
       inkscape:connector-curvature="0"
       id="path368"
       d="m 174,126 c -0.77356,8.23547 1.86268,12.26833 0,0 z"
       style="fill:#f3d8c4;stroke:none" />
    <path
       inkscape:connector-curvature="0"
       id="path370"
       d="m 168,130 c -1.59331,9.35446 2.61683,17.04261 2.78598,3.35419 C 170.35963,125.82547 169.54268,143.89763 168,130 z"
       style="fill:#5e4547;stroke:none" />
    <path
       inkscape:connector-curvature="0"
       id="path372"
       d="m 304,130 c -0.97521,3.82776 2.27142,4.40988 0,0 z"
       style="fill:#dcadb7;stroke:none" />
    <path
       inkscape:connector-curvature="0"
       id="path374"
       d="m 306,132 c 3.46801,12.04531 -11.90883,7.56477 -21.72062,9 -18.87011,0.31812 -37.90186,-0.57818 -56.63127,0.29531 -5.8275,5.45615 -15.9213,1.50876 -23.73165,2.70469 -19.08521,-6.04792 -11.00971,18.92323 -3.71328,25.69921 3.14389,-2.46363 0.75176,15.35701 9.79682,8.30079 -4.02779,23.80304 -8.20538,47.65794 -11.94097,71.47504 -6.50256,20.27561 11.19796,21.40139 22.05025,29.74351 0.1976,12.19607 16.00478,-2.10943 2.89072,0.78145 -0.38105,-9.38219 12.03783,-3.53893 17.9588,-5.45415 4.71276,-1.08172 20.47074,1.56674 17.80099,-2.54585 -11.2253,-2.59462 10.75323,1.68372 8.48042,-5 1.30094,2.40854 10.04888,9.82075 12.75979,2.51958 4.81105,-2.71828 14.00607,-1.64394 8,5.48042 4.74492,-2.63759 15.04564,-20.66662 16,-4.79896 -1.06371,15.6268 5.86064,-0.57827 4.90551,-1.61312 9.617,11.25207 -3.34435,-14.95712 6.09449,-6.58792 -2.46174,6.13522 4.94168,9.01313 12.20104,10 8.93299,0 17.86597,0 26.79896,0 -4.9362,7.51972 10.71595,-1.12192 15.21204,5.68481 4.88524,4.27528 11.84322,5.36287 8.54775,7.31519 -4.52392,5.73769 13.64121,19.62423 7.10975,-0.0168 C 384.14618,241.04574 376.54211,197.61703 372.429,154 c 7.3175,-18.10607 -13.59113,-13.56836 -24.3115,-14 -14.4623,-1.25318 -2.22984,1.29915 -10.10562,12.99562 -4.63813,16.15806 -5.65925,33.79765 -11.53841,48.58555 C 297.52063,216.0039 285.91725,180.9839 301.073,160.95312 303.77147,151.75501 309.47437,140.96225 306,132 z"
       style="fill:#f55793;stroke:none" />
    <path
       inkscape:connector-curvature="0"
       id="path376"
       d="m 303.333,136.667 c 0.11133,0.222 0.11133,0.222 0,0 z"
       style="fill:#dcadb7;stroke:none" />
    <path
       inkscape:connector-curvature="0"
       id="path378"
       d="m 170,138 c -5.83945,9.09334 5.81252,8.51562 0,0 z"
       style="fill:#333232;stroke:none" />
    <path
       inkscape:connector-curvature="0"
       id="path380"
       d="m 175,138 c 2.33057,2.54811 5.33428,1.63661 0,0 z"
       style="fill:#da8f81;stroke:none" />
    <path
       inkscape:connector-curvature="0"
       id="path382"
       d="m 324,138 c 1.12842,14.06551 5.77566,35.78783 3.51958,46 4.71446,14.07063 -23.27276,22.26344 -23.04399,15.15472 8.39345,1.28683 19.46417,-0.0438 4.85495,-0.61101 -26.23183,-3.72252 16.38283,14.56957 20.55981,-0.18063 C 329.93417,178.28604 337.70979,160.18853 343,141 c -6.33333,-1 -12.66667,-2 -19,-3 z"
       style="fill:#b92359;stroke:none" />
    <path
       inkscape:connector-curvature="0"
       id="path384"
       d="m 109,140 c 5.15797,6.35824 2.60362,-1.38511 14.93212,4.28913 7.81278,3.52151 27.67303,-6.66084 22.89559,8.0592 -1.94898,8.27002 -2.87014,16.4664 1.13404,24.30993 3.47552,8.96149 5.79956,-10.85713 13.97147,-0.13239 -8.08543,-7.00931 -11.95093,-32.77788 -10.15901,-34.71445 C 137.69428,138.78754 123.28204,140.39473 109,140 z"
       style="fill:#e13c7b;stroke:none" />
    <path
       inkscape:connector-curvature="0"
       id="path386"
       d="m 112,139 c 13.38805,-0.96591 31.83804,1.58826 45.60602,1.15759 C 144.60038,134.65655 126.82364,139.12084 112,139 z"
       style="fill:#d06477;stroke:none" />
    <path
       inkscape:connector-curvature="0"
       id="path388"
       d="m 178,139 c 5.44419,2.33039 15.21358,0.33559 22.32375,1 19.89208,0 39.78417,0 59.67625,0 -27.31133,-1.56425 -54.66068,-0.84585 -82,-1 z"
       style="fill:#dcadb7;stroke:none" />
    <path
       inkscape:connector-curvature="0"
       id="path390"
       d="m 260,139 c 5.44419,2.33039 15.21358,0.33559 22.32375,1 9.78149,0.0321 16.57677,0.0216 2.75863,-0.28336 C 276.72159,139.47776 268.36079,139.23888 260,139 z"
       style="fill:#f3d8c4;stroke:none" />
    <path
       inkscape:connector-curvature="0"
       id="path392"
       d="m 325,139 c 3.6237,2.27262 21.8148,0.60039 6.57766,0.46983 C 329.38511,139.31322 327.19255,139.15661 325,139 z"
       style="fill:#b5697f;stroke:none" />
    <path
       inkscape:connector-curvature="0"
       id="path394"
       d="m 339,139 c 5.44419,2.33039 15.21358,0.33559 22.32375,1 14.45075,0.10432 5.17286,-0.16204 -3.95938,-0.42611 C 351.24291,139.38259 345.12146,139.1913 339,139 z"
       style="fill:#e68aae;stroke:none" />
    <path
       inkscape:connector-curvature="0"
       id="path396"
       d="m 371,139 c -0.73588,16.93647 10.41837,-1.89233 0,0 z"
       style="fill:#b5697f;stroke:none" />
    <path
       inkscape:connector-curvature="0"
       id="path398"
       d="m 88,143 c 10.102202,4.68065 30.17094,-6.10313 8.722564,-1.24608 C 93.815043,142.16928 90.907521,142.58464 88,143 z"
       style="fill:#e68aae;stroke:none" />
    <path
       inkscape:connector-curvature="0"
       id="path400"
       d="m 176,147 c 0.0798,-5.7004 11.34563,-9.55079 0.23144,-3.26358 L 176,147 z"
       style="fill:#6c132f;stroke:none" />
    <path
       inkscape:connector-curvature="0"
       id="path402"
       d="m 183,140 c 9.4817,-3.61115 2.3043,21.76961 9,15.51958 -4.35397,-16.14453 9.20087,-10.44576 21.7834,-12.40947 25.65419,0.24972 -9.86493,-3.86028 -18.80936,-2.7937 C 190.9851,140.14088 186.99341,140.00001 183,140 z"
       style="fill:#e13c7b;stroke:none" />
    <path
       inkscape:connector-curvature="0"
       id="path404"
       d="m 191,140 c 5.44419,2.33039 15.21358,0.33559 22.32375,1 29.89208,0 59.78417,0 89.67625,0 -37.31947,-1.56379 -74.65988,-0.84539 -112,-1 z"
       style="fill:#d06477;stroke:none" />
    <path
       inkscape:connector-curvature="0"
       id="path406"
       d="m 374,140 c 0.2967,8.837 4.80486,17.7071 2.3468,2.34863 L 374,140 z"
       style="fill:#b13763;stroke:none" />
    <path
       inkscape:connector-curvature="0"
       id="path408"
       d="m 109,141 c 0.14563,5.92915 -1.88107,19.14044 0,19.75979 0,-6.5866 0,-13.17319 0,-19.75979 z"
       style="fill:#6c132f;stroke:none" />
    <path
       inkscape:connector-curvature="0"
       id="path410"
       d="m 111,141 c 2.12879,3.81671 -7.09662,30.01619 -0.31858,26.61502 1.90499,-9.90894 -8.00902,19.75135 -3.8322,25.52901 2.30808,9.91958 -0.0917,8.34721 0.47708,18.26666 C 99.84255,224.60729 106.73467,243.27155 102,253 c 3.08645,6.16604 0.15874,5.2895 0,12.96083 -0.44553,11.40617 -0.70309,22.09024 -3,33.03917 7.85646,-0.1063 3.56496,12.03752 7.24021,1 -4.71036,-5.31152 7.39898,-13.7468 13.54417,-14.35313 1.13723,-6.75898 9.39369,0.80308 6.35555,-5.15833 8.41601,2.96303 16.11922,6.94523 18.32156,14.20335 0.61237,10.67438 2.5187,-11.74551 6.7139,-4.91963 0.28805,-10.64042 5.29469,4.62578 3.10365,-10.42373 2.7388,-4.54542 8.85219,-8.26428 7.31494,-17.89738 4.49643,-5.88944 4.48168,-11.90708 1.85338,-19.8525 C 162.36017,230.06478 163.83958,219.57521 164,208 c -7.73447,-3.87201 -16.33564,-13.84575 -9,-22 4.93318,-5.93631 -1.68618,-19.6274 -3.93125,-6.16041 -4.51342,-1.82844 -5.97414,-12.79448 -5.55456,-18.5178 -0.56961,-6.19086 7.32776,-18.78702 -3.66735,-17.09093 C 131.43021,144.36281 121.08741,144.82114 111,141 z"
       style="fill:#f55793;stroke:none" />
    <path
       inkscape:connector-curvature="0"
       id="path412"
       d="m 158,141 c -17.23466,12.49221 9.0532,48.02218 18.26508,41.28883 C 180.12247,173.56735 173.56815,168.77134 167,173 c 20.03862,3.8826 -2.24637,9.33544 -6.39467,-5.40762 -1.25605,-10.93638 -8.96397,-21.12491 -1.71461,-24.81093 L 158.33609,141.67217 158,141 z"
       style="fill:#250e14;stroke:none" />
    <path
       inkscape:connector-curvature="0"
       id="path414"
       d="m 180,142 c 0.0798,13.33428 14.35124,-1.35341 5.30213,-0.58913 C 183.53475,141.60725 181.76738,141.80362 180,142 z"
       style="fill:#b92359;stroke:none" />
    <path
       inkscape:connector-curvature="0"
       id="path416"
       d="m 377,141 c 1.91089,2.43359 6.20566,0.37989 0,0 z"
       style="fill:#dcadb7;stroke:none" />
    <path
       inkscape:connector-curvature="0"
       id="path418"
       d="m 106,142 c 0.75297,17.78291 7.64132,-0.54381 0,0 z"
       style="fill:#b13763;stroke:none" />
    <path
       inkscape:connector-curvature="0"
       id="path420"
       d="m 377,142 c 1.66667,27 3.33333,54 5,81 3.0454,-7.39273 3.78676,-6.39632 4,0 4.55168,6.13912 1.71208,9.65987 12,6 -6.6874,-8.43207 11.74308,2.24272 8,-13 11.38182,-3.78344 5.83666,-19.16066 10.2213,-24.23772 -1.49083,-0.48693 2.26212,-14.16155 9.15459,-7.69845 0.36631,-7.98234 15.56086,-14.77328 21.84266,-16.95455 7.67342,5.48296 20.02987,-7.33399 6.96214,-9.90283 C 428.64084,151.58187 403.36601,142.65561 377,142 z"
       style="fill:#f55793;stroke:none" />
    <path
       inkscape:connector-curvature="0"
       id="path422"
       d="m 84,143 c 1.91089,2.43359 6.205655,0.37989 0,0 z"
       style="fill:#f3d8c4;stroke:none" />
    <path
       inkscape:connector-curvature="0"
       id="path424"
       d="m 70,147 c 9.123377,7.48927 -5.885165,6.45558 -11.570826,9.18223 C 47.07767,159.17272 35.628342,161.87438 25,167 c 8.569645,-1.0098 14.68056,-4.72148 15.552328,5.25388 C 31.684727,169.85217 38.67458,178.01356 42,184 c 9.530027,-1.16041 -10.226602,3.36871 0.381886,10.85826 9.937349,6.12317 2.40545,1.73434 2.618114,11.34278 10.696349,1.66885 -4.78977,0.19507 1,9.79896 5.900876,6.93776 12.408265,0.67276 13.532067,12.27168 C 61.161441,241.65957 76.888142,245.10808 75,260 c 2.543497,4.47505 5.807418,3.17738 12,9 -4.661888,5.69188 12.685136,8.6952 7.855829,17.19937 C 94.570552,298.46624 94.285276,310.73312 94,323 c 2.37301,-22.65432 -0.796292,-49.80333 3.524206,-73.95822 0.938839,-11.23099 2.870804,-24.16008 -11.292779,-23.97866 1.090169,-7.36094 -12.058741,-1.63506 -6.721634,-12.7296 7.43707,-10.53208 -14.308864,-7.94296 -3.789168,-10.33352 7.038653,-2.11681 -13.028982,-8.41466 4.2912,-9.2535 C 93.619551,185.88225 72.968144,178.98729 86,175 c -8.695719,15.28131 8.865588,2.71792 12.699205,5.79682 2.182285,-9.68214 6.766325,28.96692 7.567215,5.41085 C 105.83247,169.41891 117.42344,134.47516 88.5489,142.942 82.286718,143.90245 76.135735,145.44756 70,147 z"
       style="fill:#f55793;stroke:none" />
    <path
       inkscape:connector-curvature="0"
       id="path426"
       d="m 375,143 c -0.55265,12.24085 1.74002,13.40496 0,0 z"
       style="fill:#250e14;stroke:none" />
    <path
       inkscape:connector-curvature="0"
       id="path428"
       d="m 387,143 c 1.95344,2.37225 8.81448,0.51257 0,0 z"
       style="fill:#da8f81;stroke:none" />
    <path
       inkscape:connector-curvature="0"
       id="path430"
       d="m 80,144 c 1.91089,2.43359 6.205655,0.37989 0,0 z"
       style="fill:#dcadb7;stroke:none" />
    <path
       inkscape:connector-curvature="0"
       id="path432"
       d="m 160,144 c 5.35572,3.21343 6.19729,3.71837 0,0 z"
       style="fill:#9d1f4c;stroke:none" />
    <path
       inkscape:connector-curvature="0"
       id="path434"
       d="m 396,144 c 1.91089,2.43359 6.20566,0.37989 0,0 z"
       style="fill:#dcadb7;stroke:none" />
    <path
       inkscape:connector-curvature="0"
       id="path436"
       d="m 73,145 c 1.953439,2.37225 8.814481,0.51257 0,0 z"
       style="fill:#f3d8c4;stroke:none" />
    <path
       inkscape:connector-curvature="0"
       id="path438"
       d="m 155,145 c -0.79892,5.68553 1.94012,4.84109 0,0 z"
       style="fill:#9d1f4c;stroke:none" />
    <path
       inkscape:connector-curvature="0"
       id="path440"
       d="m 156,145 c -2.95496,13.04886 22.74195,10.17298 27.81049,23.75114 11.43122,12.32781 0.78062,-7.23282 -0.67044,-13.37099 C 174.58722,151.44807 164.94861,148.53215 156,145 z"
       style="fill:#e13c7b;stroke:none" />
    <path
       inkscape:connector-curvature="0"
       id="path442"
       d="m 309,148 c 12.56171,4.17005 13.2738,-5.08261 0,0 z"
       style="fill:#6c132f;stroke:none" />
    <path
       inkscape:connector-curvature="0"
       id="path444"
       d="m 66,147 c 1.91089,2.43359 6.205655,0.37989 0,0 z"
       style="fill:#e68aae;stroke:none" />
    <path
       inkscape:connector-curvature="0"
       id="path446"
       d="m 75,150 c 5.355724,-3.21343 6.19729,-3.71837 0,0 z"
       style="fill:#b92359;stroke:none" />
    <path
       inkscape:connector-curvature="0"
       id="path448"
       d="m 163,147 c 5.21037,3.90778 5.45075,4.08806 0,0 z"
       style="fill:#dcadb7;stroke:none" />
    <path
       inkscape:connector-curvature="0"
       id="path450"
       d="m 303,168 c 4.44579,6.29785 14.82861,1.50225 21.84333,3 4.46657,-21.25446 -22.99828,-33.86693 -21.65735,-5.92738 L 303,168 z"
       style="fill:#e13c7b;stroke:none" />
    <path
       inkscape:connector-curvature="0"
       id="path452"
       d="m 373,147 c -2.7593,8.31459 4.30989,16.99502 0.57278,3.43666 C 373.38185,149.29111 373.19093,148.14555 373,147 z m -312,1 c 1.953439,2.37225 8.814481,0.51257 0,0 z"
       style="fill:#dcadb7;stroke:none" />
    <path
       inkscape:connector-curvature="0"
       id="path454"
       d="m 55,151 c 0.894143,8.37735 12.346582,-0.56865 18,0 1.196573,-6.59011 -13.870551,0.88748 -18,0 z"
       style="fill:#e13c7b;stroke:none" />
    <path
       inkscape:connector-curvature="0"
       id="path456"
       d="m 167,148 c 5.16445,4.38022 12.44778,5.19156 0,0 z"
       style="fill:#9d1f4c;stroke:none" />
    <path
       inkscape:connector-curvature="0"
       id="path458"
       d="m 313,148 c -0.73537,6.12838 5.34671,-1.30378 0,0 z"
       style="fill:#b92359;stroke:none" />
    <path
       inkscape:connector-curvature="0"
       id="path460"
       d="m 315,148 c 7.16276,8.42914 12.75221,7.13156 0,0 z m -259,2 c 3.256555,1.73374 15.165646,-0.8072 0,0 z"
       style="fill:#e68aae;stroke:none" />
    <path
       inkscape:connector-curvature="0"
       id="path462"
       d="m 151,149 c -0.67117,8.22056 1.83099,9.2638 0,0 z m 32,0 c 0.52821,8.42082 4.29,18.62461 1.04789,4.54086 C 183.69859,152.02724 183.3493,150.51362 183,149 z"
       style="fill:#6c132f;stroke:none" />
    <path
       inkscape:connector-curvature="0"
       id="path464"
       d="m 406,149 c 0.372,2.71771 5.5316,0.12074 0,0 z"
       style="fill:#9d1f4c;stroke:none" />
    <path
       inkscape:connector-curvature="0"
       id="path466"
       d="m 40,155 c 9.230791,-0.0571 11.503567,-1.6253 -0.134529,3.67747 -3.252412,1.83165 -22.217207,9.44704 -11.088367,5.98494 C 43.851403,160.44161 58.925701,156.2208 74,152 68.049714,149.95274 56.765171,158.64362 51.083557,151.53746 47.146231,151.62857 43.651316,153.8277 40,155 z"
       style="fill:#e68aae;stroke:none" />
    <path
       inkscape:connector-curvature="0"
       id="path468"
       d="m 111.333,151.667 c 0.11133,0.222 0.11133,0.222 0,0 z"
       style="fill:#b92359;stroke:none" />
    <path
       inkscape:connector-curvature="0"
       id="path470"
       d="m 158.667,152.333 c 0.222,0.11133 0.222,0.11133 0,0 z"
       style="fill:#5e4547;stroke:none" />
    <path
       inkscape:connector-curvature="0"
       id="path472"
       d="m 162,152 c 2.59489,3.53764 8.6164,3.88935 0,0 z"
       style="fill:#e68aae;stroke:none" />
    <path
       inkscape:connector-curvature="0"
       id="path474"
       d="m 372,152 c 1.01899,10.71909 6.1972,8.90111 3,5.24021 -2.29459,7.07732 1.02355,-8.18897 -3,-5.24021 z"
       style="fill:#d06477;stroke:none" />
    <path
       inkscape:connector-curvature="0"
       id="path476"
       d="m 376,152 c -0.5571,5.11606 0.72102,22.82601 0.58751,8.81269 C 376.39168,157.87513 376.19584,154.93756 376,152 z"
       style="fill:#6c132f;stroke:none" />
    <path
       inkscape:connector-curvature="0"
       id="path478"
       d="m 52,153 c -0.836986,5.8187 7.907021,-1.15334 0,0 z"
       style="fill:#b92359;stroke:none" />
    <path
       inkscape:connector-curvature="0"
       id="path480"
       d="m 160,153 c -0.0864,6.72437 20.91056,7.10818 7.36971,3.4014 C 164.91314,155.2676 162.45657,154.1338 160,153 z"
       style="fill:#6c132f;stroke:none" />
    <path
       inkscape:connector-curvature="0"
       id="path482"
       d="m 32,156 c 6.309538,0.92711 17.40912,-2.61699 0,0 z"
       style="fill:#dcadb7;stroke:none" />
    <path
       inkscape:connector-curvature="0"
       id="path484"
       d="m 387,390 c 7.20793,-26.60059 0.009,-54.04263 0,-81 2.69785,5.43177 1.36244,15.17888 2.50676,22.27284 0.35996,8.66293 1.8338,17.23112 3.49324,25.72716 -1.71232,-12.61998 12.43148,-18.24567 17.73287,-29.29245 4.39217,-4.34717 4.93162,-19.15444 12.87315,-13.86514 3.69872,-11.58058 -1.00873,-14.6776 3.39398,-22.56303 12.49013,-8.15208 18.06434,-22.93418 25.81403,-37.63549 C 465.22994,225.8802 475.29834,196.92037 481,167 c -7.66667,-2.33333 -15.33333,-4.66667 -23,-7 4.53547,8.34709 -8.00324,10.12755 -13,6 -7.14768,3.58088 -19.16521,14.77616 -20.37589,16.93617 -7.75392,-1.86546 -10.72439,7.3911 -7.66436,11.19708 -7.58093,3.68087 1.13601,15.82303 -9.09847,20.00547 -1.80747,6.67651 -8.24964,14.38943 -11.40068,11.01278 4.46804,6.2593 -12.65381,7.89425 -7.04852,1.94299 -5.25979,-6.24026 -2.59049,-13.79957 -6.75978,-7.00972 -0.48513,25.22486 2.89011,50.59388 2.3477,75.91523 -1.37629,-1.61951 -13.28908,-7.4103 -6.0235,-13.23237 -2.23541,3.12069 -5.57457,-5.69885 -13.18854,-6.45244 -7.70677,-4.32342 -13.83931,1.74397 -14.26838,-4.31519 -10.17319,0 -20.34639,0 -30.51958,0 -6.58768,-4.81878 -5.40166,-9.4604 -9.79611,-10.77667 4.76189,13.63654 -2.50445,5.5054 -3.85139,9.06845 -7.21044,19.62158 2.20582,-10.29399 -8.31333,-6.29178 -9.42845,0.35879 -0.17023,10.99168 -11.03917,11 6.66432,-7.0942 -4.97821,-9.04007 -8,-4.51958 -5.97185,6.35251 -9.79348,-2.66163 -13.72062,-3.48042 2.52196,9.10228 -19.57209,0.17309 -6.27938,6.24021 -7.15507,1.97564 -17.6124,0.73948 -26.03433,1.48297 C 226.46419,271.05081 217.12268,281.54806 229,280 c -7.38555,13.76955 -9.23325,-10.80139 -20.0303,-8.24067 -22.53694,-7.1767 -5.26788,-42.50055 -5.2912,-60.34446 C 204.87744,194.48245 216.25805,180.82966 201,174 c 4.43791,-4.47038 -6.03706,-8.53185 -6.05631,-10.76107 0.87499,5.64984 -3.20861,19.41138 0.93327,19.88411 5.6528,11.24971 0.87314,35.06746 -1.35974,50.71537 -4.18229,24.50984 -6.15693,51.1059 2.98389,74.57255 0.40664,12.75564 6.06829,38.80449 2.14576,47.80466 2.09196,16.43477 -24.56925,15.25092 -35.92673,12.8073 C 153.44813,367.06676 155.22858,361.2204 148,362 c 10.72925,-4.90676 41.02459,-3.08506 47.92003,-1.47913 C 195.28002,340.68058 194.64001,320.84029 194,301 c -10.17171,4.33368 -41.74229,9.25721 -26.06124,-7.88773 -6.84221,-0.94198 3.37004,-18.79148 2.06124,-6.15144 1.22678,13.43762 5.27921,-19.99399 4.55144,-25.15367 C 175.05255,242.18545 173.02292,222.61486 173,203 c -12.6442,-2.0383 -11.74948,-1.30091 -10.79127,8.96394 0.43805,14.32905 2.38671,33.68424 0.81477,45.26843 -4.48184,4.67316 1.45879,17.76595 -6.6935,18.3793 -4.83533,1.20213 0.87717,19.45874 -4.33,8.38833 1.20946,11.11015 -7.48299,0.013 -6.51355,12.43225 0.64994,4.84917 -3.82846,-12.82472 -11.04618,-12.38642 C 123.26177,276.94221 129.42528,285.56155 121,282 c 1.74941,7.5227 -23.644607,7.6894 -13,14 -1.53232,4.30291 -4.68508,15.27546 -5,3 -8.826474,-1.34474 -2.42468,11.99699 -3.759792,12 -4.62022,13.9419 -3.397846,35.14287 -4.075294,51.95036 C 95.822567,376.89537 93.648272,396.69429 94,373.35771 93.867277,342.23519 94.658756,311.11918 95,280 86.385646,274.64192 87.741272,270.32515 82.615202,264.6152 72.864743,265.87238 77.489086,253.29764 71.17213,244.68686 61.891723,240.68148 60.72252,230.26095 56.935866,221.45665 53.927857,220.25647 39.422126,213.36507 47.480417,208 52.758592,210.6743 36.998567,199.88039 49,200 45.861978,198.67735 32.585343,184.67955 44.960833,185 44.640638,186.36532 34.095171,174.60583 36.216124,172.24322 44.10968,176.18061 38.65269,159.95599 31.575231,165.49498 20.95321,167.66346 25.600379,161.73607 29,160 c 5.598545,4.04324 13.690445,-4.64204 20.288317,-5.70034 -12.394267,4.43167 -61.053605,3.61073 -42.2534018,30.23501 11.3118008,21.52364 13.2017898,46.65424 22.4360708,69.11502 15.296324,46.06404 37.092955,89.65919 61.20213,131.64745 10.914424,8.4217 25.879084,2.13128 38.728964,3.70286 85.86832,-0.2483 171.73079,0.88361 257.59792,1 z"
       style="fill:#e13c7b;stroke:none" />
    <path
       inkscape:connector-curvature="0"
       id="path486"
       d="m 323.333,154.667 c 0.11133,0.222 0.11133,0.222 0,0 z"
       style="fill:#9d1f4c;stroke:none" />
    <path
       inkscape:connector-curvature="0"
       id="path488"
       d="m 442,154 c 0.372,2.71771 5.5316,0.12074 0,0 z"
       style="fill:#dcadb7;stroke:none" />
    <path
       inkscape:connector-curvature="0"
       id="path490"
       d="m 160,155 c -1.10639,9.37057 1.40917,7.99433 3.27248,9.32855 C 174.04174,159.16131 166.92668,155.69282 160,155 z"
       style="fill:#b92359;stroke:none" />
    <path
       inkscape:connector-curvature="0"
       id="path492"
       d="m 188,155 c -2.75464,9.83217 1.73144,14.9976 0,0 z"
       style="fill:#6c132f;stroke:none" />
    <path
       inkscape:connector-curvature="0"
       id="path494"
       d="m 327,155 c -0.55265,12.24085 1.74002,13.40496 0,0 z"
       style="fill:#911023;stroke:none" />
    <path
       inkscape:connector-curvature="0"
       id="path496"
       d="m 377,155 c -0.55265,12.24085 1.74002,13.40496 0,0 z"
       style="fill:#b13763;stroke:none" />
    <path
       inkscape:connector-curvature="0"
       id="path498"
       d="m 189,156 c 3.35641,11.53172 2.56775,19.8335 -2.859,29.664 -1.50787,9.80938 -0.74079,15.65496 4.68361,13.56374 C 187.88307,219.8185 184.94154,240.40925 182,261 c 4.28252,0.34832 -1.74726,14.25491 4.88247,18.76493 10.81698,17.57682 5.9871,39.14658 7.11627,58.72069 -0.11601,7.74245 0.58725,15.46431 0.88426,23.19638 -10.58649,1.4762 -10.33681,3.01758 -6.11956,4.41312 -13.33786,0.0697 -10.7283,1.80917 -23.68107,-1.80309 -5.01333,-5.38322 -20.44806,0.28934 -5.10285,3.12776 7.88063,3.90485 17.67921,4.06881 26.03733,3.74959 4.73064,-4.47784 17.34169,-5.29814 13.16759,-14.06272 5.31663,0.32195 1.29771,-12.58183 2.00749,-18.69223 C 200.79462,329.27629 200.39731,320.13814 200,311 188.80713,291.83275 190.63779,267.52664 193.27444,246.13298 196.34966,224.9946 201.97486,203.3085 197,182 c -7.06214,9.0282 4.31411,-27.53702 -8,-26 z"
       style="fill:#b92359;stroke:none" />
    <path
       inkscape:connector-curvature="0"
       id="path500"
       d="m 324,156 c -0.97521,3.82776 2.27142,4.40988 0,0 z"
       style="fill:#6c132f;stroke:none" />
    <path
       inkscape:connector-curvature="0"
       id="path502"
       d="m 24,159 c 6.309538,0.92711 17.40912,-2.61699 0,0 z"
       style="fill:#e68aae;stroke:none" />
    <path
       inkscape:connector-curvature="0"
       id="path504"
       d="m 305.667,157.333 0.666,0.334 -0.666,-0.334 z M 107,158 c -1.66667,28.66667 -3.33333,57.33333 -5,86 5.16634,-9.88512 -0.64777,-27.94964 4.13186,-40.99174 C 106.97823,188.16837 109.98572,172.53404 107,158 z"
       style="fill:#9d1f4c;stroke:none" />
    <path
       inkscape:connector-curvature="0"
       id="path506"
       d="m 169,158 c -8.12488,12.0719 -6.35246,0.57497 -9.1507,7.70072 C 161.99903,181.89876 174.24523,161.9464 178,178 c 0.59388,-7.80696 -0.71567,-16.6848 -9,-20 z"
       style="fill:#911023;stroke:none" />
    <path
       inkscape:connector-curvature="0"
       id="path508"
       d="m 189,158 c -2.94916,12.43787 5.70371,20.45635 0.94299,5.0293 C 189.62866,161.35287 189.31433,159.67643 189,158 z"
       style="fill:#9d1f4c;stroke:none" />
    <path
       inkscape:connector-curvature="0"
       id="path510"
       d="m 172,159 c 13.36252,10.58239 13.7411,30.76291 11.48342,52.22025 -1.75396,10.01201 -1.64482,40.46908 1.15492,14.65092 -2.29174,-19.90509 8.42267,-43.06796 -1.13376,-60.24758 C 180.24315,162.58065 176.26562,160.29916 172,159 z"
       style="fill:#250e14;stroke:none" />
    <path
       inkscape:connector-curvature="0"
       id="path512"
       d="m 29,160 c -0.735372,6.12838 5.346715,-1.30378 0,0 z"
       style="fill:#b92359;stroke:none" />
    <path
       inkscape:connector-curvature="0"
       id="path514"
       d="m 301,160 c -2.341,9.30729 1.80548,17.06834 0.27904,3.34853 C 301.18603,162.23235 301.09301,161.11618 301,160 z"
       style="fill:#911023;stroke:none" />
    <path
       inkscape:connector-curvature="0"
       id="path516"
       d="m 374,160 c 0.66667,10.66667 1.33333,21.33333 2,32 2.03969,-8.39881 2.69035,-22.72358 -2,-32 z"
       style="fill:#e68aae;stroke:none" />
    <path
       inkscape:connector-curvature="0"
       id="path518"
       d="m 25,161 c -0.735372,6.12838 5.346715,-1.30378 0,0 z"
       style="fill:#b92359;stroke:none" />
    <path
       inkscape:connector-curvature="0"
       id="path520"
       d="m 299,161 c -4.4819,9.2375 -4.90206,40.11964 1.51355,37.56775 C 300.74756,191.83452 293.72667,182.90468 300,178 c -7.34046,2.23986 3.63604,-14.62393 -0.24021,-17 L 299,161 z"
       style="fill:#e13c7b;stroke:none" />
    <path
       inkscape:connector-curvature="0"
       id="path522"
       d="m 469,162 c 0.372,2.71771 5.5316,0.12074 0,0 z"
       style="fill:#dcadb7;stroke:none" />
    <path
       inkscape:connector-curvature="0"
       id="path524"
       d="m 110,163 c 0.91466,13.19529 -2.556,-3.05569 -2,9 3.06271,0.40601 6.68652,-10.74949 2,-9 z"
       style="fill:#e13c7b;stroke:none" />
    <path
       inkscape:connector-curvature="0"
       id="path526"
       d="m 472.667,163.333 c 0.222,0.11133 0.222,0.11133 0,0 z"
       style="fill:#dcadb7;stroke:none" />
    <path
       inkscape:connector-curvature="0"
       id="path528"
       d="m 155,164 c 4.2458,6.3687 11.42482,17.13723 3.18439,4.77659 C 157.12293,167.18439 156.06146,165.5922 155,164 z"
       style="fill:#6c132f;stroke:none" />
    <path
       inkscape:connector-curvature="0"
       id="path530"
       d="m 302,164 c 0.34705,11.05406 0.44001,10.74707 8,7 -5.73374,1.39426 -7.06216,-1.95548 -8,-7 z"
       style="fill:#975d66;stroke:none" />
    <path
       inkscape:connector-curvature="0"
       id="path532"
       d="m 325,164 c -0.5841,11.39394 1.70248,10.82905 0,0 z"
       style="fill:#6c132f;stroke:none" />
    <path
       inkscape:connector-curvature="0"
       id="path534"
       d="m 377,165 c -1.8412,11.23457 0.48878,10.9624 0,0 z"
       style="fill:#9d1f4c;stroke:none" />
    <path
       inkscape:connector-curvature="0"
       id="path536"
       d="m 477.667,165.333 c 0.222,0.11133 0.222,0.11133 0,0 z"
       style="fill:#dcadb7;stroke:none" />
    <path
       inkscape:connector-curvature="0"
       id="path538"
       d="m 179,167 c -3.62062,8.58592 9.34407,11.02502 0,0 z"
       style="fill:#e13c7b;stroke:none" />
    <path
       inkscape:connector-curvature="0"
       id="path540"
       d="m 1.33333,168.667 c 0.1111133,0.222 0.1111133,0.222 0,0 z"
       style="fill:#b4b3b3;stroke:none" />
    <path
       inkscape:connector-curvature="0"
       id="path542"
       d="m 178,168 c -0.97521,3.82776 2.27142,4.40988 0,0 z"
       style="fill:#9d1f4c;stroke:none" />
    <path
       inkscape:connector-curvature="0"
       id="path544"
       d="m 480,169 c -0.79892,5.68553 1.94012,4.84109 0,0 z"
       style="fill:#b5697f;stroke:none" />
    <path
       inkscape:connector-curvature="0"
       id="path546"
       d="m 2,170 c -1.025801,5.15297 2.056524,8.44232 0,0 z"
       style="fill:#da8f81;stroke:none" />
    <path
       inkscape:connector-curvature="0"
       id="path548"
       d="m 166,171 c 6.32518,4.12768 16.91819,-2.99084 0,0 z"
       style="fill:#b13763;stroke:none" />
    <path
       inkscape:connector-curvature="0"
       id="path550"
       d="m 181,170 c 4.21758,7.40374 -7.2103,-0.22993 -4.04802,13.11256 -3.13341,23.01548 -3.12984,46.15919 -2.43934,69.33098 0.16246,13.18549 0.32491,26.37097 0.48736,39.55646 8.49892,-0.11432 7.19688,-4.08474 6.45474,-13.63139 C 180.96983,266.24574 180.48491,254.12287 180,242 c -7.54039,4.39624 7.61215,-20.28232 2.31327,-28.0036 C 178.58971,199.52773 189.74513,182.68983 181,170 z"
       style="fill:#f55793;stroke:none" />
    <path
       inkscape:connector-curvature="0"
       id="path552"
       d="m 374.333,170.667 c 0.11133,0.222 0.11133,0.222 0,0 z"
       style="fill:#9d1f4c;stroke:none" />
    <path
       inkscape:connector-curvature="0"
       id="path554"
       d="m 304,172 c -5.57571,9.87786 20.30679,6.75616 13.2365,3.29853 -14.24607,-2.18266 -11.15652,-2.39657 -0.09,-1.71187 9.5889,-1.97126 9.40832,10.63157 5.62555,-2.19366 -6.24511,-1.44337 -12.50971,0.57455 -18.772,0.607 z"
       style="fill:#5e4547;stroke:none" />
    <path
       inkscape:connector-curvature="0"
       id="path556"
       d="m 377,171 c -0.63153,12.15147 1.78448,15.10192 0,0 z"
       style="fill:#6c132f;stroke:none" />
    <path
       inkscape:connector-curvature="0"
       id="path558"
       d="m 299,172 c -3.2847,7.5431 5.29003,-2.04213 0,0 z"
       style="fill:#250e14;stroke:none" />
    <path
       inkscape:connector-curvature="0"
       id="path560"
       d="m 301,172 c -5.34334,13.9331 4.86128,0.59088 0,0 z"
       style="fill:#ffffff;stroke:none" />
    <path
       inkscape:connector-curvature="0"
       id="path562"
       d="m 165,173 c 5.24867,6.00211 17.94876,5.21402 6.11919,1.11258 C 169.07946,173.74172 167.03973,173.37086 165,173 z"
       style="fill:#5e4547;stroke:none" />
    <path
       inkscape:connector-curvature="0"
       id="path564"
       d="m 306,173 c 5.40511,2.33792 19.60702,0.51622 4.34411,0.33416 C 308.89608,173.22278 307.44804,173.11139 306,173 z"
       style="fill:#9e654a;stroke:none" />
    <path
       inkscape:connector-curvature="0"
       id="path566"
       d="m 326,173 c 2.69843,10.60594 -11.16634,3.9129 -17.34653,5.2458 -13.35088,-0.10348 5.77665,2.02557 10.42175,1.99076 C 327.8054,180.34497 331.48719,184.31265 326,173 z"
       style="fill:#b5697f;stroke:none" />
    <path
       inkscape:connector-curvature="0"
       id="path568"
       d="m 155,174 c -2.06574,14.6844 5.14426,1.91558 0,0 z"
       style="fill:#250e14;stroke:none" />
    <path
       inkscape:connector-curvature="0"
       id="path570"
       d="m 318,176 c 9.27531,6.38911 9.97672,-6.18308 0,0 z"
       style="fill:#989390;stroke:none" />
    <path
       inkscape:connector-curvature="0"
       id="path572"
       d="m 374.333,174.667 c 0.11133,0.222 0.11133,0.222 0,0 z"
       style="fill:#9d1f4c;stroke:none" />
    <path
       inkscape:connector-curvature="0"
       id="path574"
       d="m 376,174 c -0.79892,5.68553 1.94012,4.84109 0,0 z"
       style="fill:#b5697f;stroke:none" />
    <path
       inkscape:connector-curvature="0"
       id="path576"
       d="m 83,175 c -6.213648,4.31888 5.704914,8.54569 -0.12971,14.01196 -10.225083,3.65991 -10.994,9.99797 -6.110498,12.98804 -13.082929,2.25357 9.81709,-0.7847 2.803243,9.42841 C 74.141712,222.85814 86.849177,217.81778 86,225 c 9.605396,0.6653 11.854279,4.15253 10.549025,13.17669 C 98.201748,256.39633 96.01297,274.73064 96,293 c 2.295673,-14.16427 1.610945,-32.65696 3.802746,-48.40828 0.928494,-20.53275 6.110954,-41.38436 2.938924,-61.75011 -4.866724,-5.90794 -3.222163,-0.63392 -11.960222,-2.73233 C 73.863698,191.06257 91.708913,175.71969 83,175 z"
       style="fill:#e68aae;stroke:none" />
    <path
       inkscape:connector-curvature="0"
       id="path578"
       d="m 157,175 c -5.09916,13.30939 4.99892,-0.73159 0,0 z"
       style="fill:#ffffff;stroke:none" />
    <path
       inkscape:connector-curvature="0"
       id="path580"
       d="m 179,175 c -0.73537,6.12838 5.34671,-1.30378 0,0 z"
       style="fill:#b92359;stroke:none" />
    <path
       inkscape:connector-curvature="0"
       id="path582"
       d="m 297,175 c -0.79892,5.68553 1.94012,4.84109 0,0 z"
       style="fill:#e68aae;stroke:none" />
    <path
       inkscape:connector-curvature="0"
       id="path584"
       d="m 298,175 c -1.13925,8.08283 5.81413,-0.91925 0,0 z"
       style="fill:#333232;stroke:none" />
    <path
       inkscape:connector-curvature="0"
       id="path586"
       d="m 303,175 c -0.91393,2.7418 -1.67562,5.02686 0,0 z"
       style="fill:#250e14;stroke:none" />
    <path
       inkscape:connector-curvature="0"
       id="path588"
       d="m 319,175 c 5.9803,6.23882 8.056,-1.77401 0,0 z"
       style="fill:#ffffff;stroke:none" />
    <path
       inkscape:connector-curvature="0"
       id="path590"
       d="m 156,176 c -0.79892,5.68553 1.94012,4.84109 0,0 z"
       style="fill:#736f71;stroke:none" />
    <path
       inkscape:connector-curvature="0"
       id="path592"
       d="m 159,176 c -9.0104,10.37648 14.3347,3.28964 1,4 3.62016,-1.55069 4.18899,-1.62846 -1,-4 z"
       style="fill:#5e4547;stroke:none" />
    <path
       inkscape:connector-curvature="0"
       id="path594"
       d="m 168,176 c 7.27562,3.95124 11.01475,2.89465 0,0 z"
       style="fill:#975d66;stroke:none" />
    <path
       inkscape:connector-curvature="0"
       id="path596"
       d="m 161,177 c 3.39888,4.04271 10.68411,6.04206 0,0 z"
       style="fill:#b13763;stroke:none" />
    <path
       inkscape:connector-curvature="0"
       id="path598"
       d="m 302,178 c 7.33333,1.33333 14.66667,2.66667 22,4 -5.13707,-3.00795 -15.1893,-2.42065 -22,-4 z"
       style="fill:#9d1f4c;stroke:none" />
    <path
       inkscape:connector-curvature="0"
       id="path600"
       d="m 160,179 c 1.91089,2.43359 6.20566,0.37989 0,0 z"
       style="fill:#f55793;stroke:none" />
    <path
       inkscape:connector-curvature="0"
       id="path602"
       d="m 176,179 c -0.5841,11.39394 1.70248,10.82905 0,0 z"
       style="fill:#b13763;stroke:none" />
    <path
       inkscape:connector-curvature="0"
       id="path604"
       d="m 297,181 c 0.57231,4.10417 1.72979,23.6061 4.19555,13.28452 C 299.79777,189.81504 306.4306,174.00895 297,181 z"
       style="fill:#6c132f;stroke:none" />
    <path
       inkscape:connector-curvature="0"
       id="path606"
       d="m 378,179 c -1.42328,8.52808 -0.008,18.65246 0,4.31854 0,-1.43951 0,-2.87903 0,-4.31854 z"
       style="fill:#b13763;stroke:none" />
    <path
       inkscape:connector-curvature="0"
       id="path608"
       d="m 302,180 c 1.52804,5.96443 -5.6365,19.4355 3.94046,18.44913 6.31101,-0.95649 19.66326,6.24067 17.40351,-4.64062 2.52632,-9.46565 -0.24534,-14.35613 -10.46001,-12.81906 C 309.25598,180.65963 305.62799,180.32982 302,180 z"
       style="fill:#e13c7b;stroke:none" />
    <path
       inkscape:connector-curvature="0"
       id="path610"
       d="m 164,181 c -0.3455,10.20816 15.90427,10.66904 4.18936,3.35149 C 166.79291,183.23433 165.39645,182.11716 164,181 z"
       style="fill:#b92359;stroke:none" />
    <path
       inkscape:connector-curvature="0"
       id="path612"
       d="m 165,181 c 20.27534,8.91969 2.41482,17.60769 0.48042,19 16.22729,5.20645 12.11455,-18.76634 -0.48042,-19 z"
       style="fill:#911023;stroke:none" />
    <path
       inkscape:connector-curvature="0"
       id="path614"
       d="m 301,181 c -0.67117,8.22056 1.83099,9.2638 0,0 z"
       style="fill:#b13763;stroke:none" />
    <path
       inkscape:connector-curvature="0"
       id="path616"
       d="m 324,181 c 0.68472,4.69673 -3.19968,20.44123 1.07736,17.76221 C 324.43923,190.46423 326.52806,184.60598 330,181 c -2,0 -4,0 -6,0 z"
       style="fill:#6c132f;stroke:none" />
    <path
       inkscape:connector-curvature="0"
       id="path618"
       d="m 5,182 c 0.7393963,5.81608 3.047567,4.53941 0,0 z"
       style="fill:#dcadb7;stroke:none" />
    <path
       inkscape:connector-curvature="0"
       id="path620"
       d="m 154,182 c 0.89152,6.7043 -3.47651,11.87409 0,20 5.32953,-2.46029 22.20774,-1.70208 18.77667,-12.79611 -8.32187,-0.82731 -17.55852,-13.42375 -14.77667,3.95798 1.1e-4,13.54338 -3.13299,-5.30068 -3.80189,-10.03925 L 154,182 z"
       style="fill:#e13c7b;stroke:none" />
    <path
       inkscape:connector-curvature="0"
       id="path622"
       d="m 155,182 c 0.48274,4.22443 2.34235,24.23282 3,12.03917 -1.27084,-3.49041 2.97794,-13.42775 -3,-12.03917 z"
       style="fill:#911023;stroke:none" />
    <path
       inkscape:connector-curvature="0"
       id="path624"
       d="m 476.333,182.667 c 0.11133,0.222 0.11133,0.222 0,0 z"
       style="fill:#da8f81;stroke:none" />
    <path
       inkscape:connector-curvature="0"
       id="path626"
       d="m 159,184 c -0.73537,6.12838 5.34671,-1.30378 0,0 z"
       style="fill:#b92359;stroke:none" />
    <path
       inkscape:connector-curvature="0"
       id="path628"
       d="m 378,186 c -0.5841,11.39394 1.70248,10.82905 0,0 z"
       style="fill:#6c132f;stroke:none" />
    <path
       inkscape:connector-curvature="0"
       id="path630"
       d="m 8,187 c 6.334029,20.12078 10.472796,41.03865 20,60 C 21.413931,226.9719 15.805302,206.60423 8,187 z"
       style="fill:#b13763;stroke:none" />
    <path
       inkscape:connector-curvature="0"
       id="path632"
       d="m 375.333,187.667 c 0.11133,0.222 0.11133,0.222 0,0 z"
       style="fill:#9d1f4c;stroke:none" />
    <path
       inkscape:connector-curvature="0"
       id="path634"
       d="m 474,188 c -0.79892,5.68553 1.94012,4.84109 0,0 z"
       style="fill:#dcadb7;stroke:none" />
    <path
       inkscape:connector-curvature="0"
       id="path636"
       d="m 8,190 c -0.9752133,3.82776 2.27142,4.40988 0,0 z"
       style="fill:#e68aae;stroke:none" />
    <path
       inkscape:connector-curvature="0"
       id="path638"
       d="m 182,191 c -0.55265,12.24085 1.74002,13.40496 0,0 z m 197,1 c 1.66986,30.99983 3.33434,61.99995 5,93 2.07506,-5.4382 -0.37793,-15.19684 -0.047,-22.29918 C 383.02571,239.06698 381.83895,215.49607 379,192 z"
       style="fill:#b13763;stroke:none" />
    <path
       inkscape:connector-curvature="0"
       id="path640"
       d="m 473.333,192.667 c 0.11133,0.222 0.11133,0.222 0,0 z"
       style="fill:#e68aae;stroke:none" />
    <path
       inkscape:connector-curvature="0"
       id="path642"
       d="m 9,193 c -0.9752133,3.82776 2.27142,4.40988 0,0 z"
       style="fill:#dcadb7;stroke:none" />
    <path
       inkscape:connector-curvature="0"
       id="path644"
       d="m 106,195 c 0.14563,5.92915 -1.88107,19.14044 0,19.75979 -1.48891,-9.80807 2.15936,-11.30402 2,-18.96083 0.63187,-1.56486 -1.31541,-0.55056 -2,-0.79896 z"
       style="fill:#d06477;stroke:none" />
    <path
       inkscape:connector-curvature="0"
       id="path646"
       d="m 472,195 c -0.97521,3.82776 2.27142,4.40988 0,0 z"
       style="fill:#989390;stroke:none" />
    <path
       inkscape:connector-curvature="0"
       id="path648"
       d="m 190,198 c -7.52208,3.6105 -3.46855,13.62345 -5.44191,20.30294 C 183.70539,228.53529 182.8527,238.76765 182,249 c 2.12883,-15.1699 12.31809,-34.3669 8,-51 z"
       style="fill:#e13c7b;stroke:none" />
    <path
       inkscape:connector-curvature="0"
       id="path650"
       d="m 158,199 c 13.52186,7.16145 21.01135,0.12119 3.45115,0.40602 C 160.30077,199.27068 159.15038,199.13534 158,199 z m 144,0 c 5.01234,2.80735 14.3293,1.70058 21,3 -2.07703,-4.69763 -15.40683,-1.44186 -21,-3 z"
       style="fill:#6c132f;stroke:none" />
    <path
       inkscape:connector-curvature="0"
       id="path652"
       d="m 174,201 c -10.4492,5.6e-4 -15.48173,2.73884 -2.07833,2 2.52806,1.41728 -0.024,23.33845 2.07833,13.27938 0,-5.09313 0,-10.18625 0,-15.27938 z"
       style="fill:#911023;stroke:none" />
    <path
       inkscape:connector-curvature="0"
       id="path654"
       d="m 185,202 c -0.3347,4.24417 0.28086,24.26824 0.70869,12.04773 C 185.47246,210.03182 185.23623,206.01591 185,202 z"
       style="fill:#6c132f;stroke:none" />
    <path
       inkscape:connector-curvature="0"
       id="path656"
       d="m 470,202 c -0.97521,3.82776 2.27142,4.40988 0,0 z"
       style="fill:#da8f81;stroke:none" />
    <path
       inkscape:connector-curvature="0"
       id="path658"
       d="m 103,203 c -1.0258,5.15297 2.05652,8.44232 0,0 z"
       style="fill:#975d66;stroke:none" />
    <path
       inkscape:connector-curvature="0"
       id="path660"
       d="m 186,203 c 0.42916,5.92736 -0.97067,19.32424 0.94101,19.7612 C 186.62734,216.17413 186.31367,209.58707 186,203 z"
       style="fill:#f55793;stroke:none" />
    <path
       inkscape:connector-curvature="0"
       id="path662"
       d="m 177,204 c -0.73537,6.12838 5.34671,-1.30378 0,0 z"
       style="fill:#b92359;stroke:none" />
    <path
       inkscape:connector-curvature="0"
       id="path664"
       d="m 181,205 c -0.77356,8.23547 1.86268,12.26833 0,0 z"
       style="fill:#b13763;stroke:none" />
    <path
       inkscape:connector-curvature="0"
       id="path666"
       d="m 179,211 c -2.05251,4.10503 -3.10845,6.2169 0,0 z"
       style="fill:#e13c7b;stroke:none" />
    <path
       inkscape:connector-curvature="0"
       id="path668"
       d="m 181,213 c -0.56419,5.1931 0.74281,23.81521 0.61319,9.81103 C 181.40879,219.54069 181.2044,216.27034 181,213 z"
       style="fill:#9d1f4c;stroke:none" />
    <path
       inkscape:connector-curvature="0"
       id="path670"
       d="m 377.333,214.667 c 0.11133,0.222 0.11133,0.222 0,0 z"
       style="fill:#b92359;stroke:none" />
    <path
       inkscape:connector-curvature="0"
       id="path672"
       d="m 466.333,214.667 c 0.11133,0.222 0.11133,0.222 0,0 z"
       style="fill:#dcadb7;stroke:none" />
    <path
       inkscape:connector-curvature="0"
       id="path674"
       d="m 17,219 c -0.975213,3.82776 2.27142,4.40988 0,0 z"
       style="fill:#da8f81;stroke:none" />
    <path
       inkscape:connector-curvature="0"
       id="path676"
       d="m 185,219 c -1.0258,5.15297 2.05652,8.44232 0,0 z"
       style="fill:#975d66;stroke:none" />
    <path
       inkscape:connector-curvature="0"
       id="path678"
       d="m 464.333,220.667 c 0.11133,0.222 0.11133,0.222 0,0 z"
       style="fill:#dcadb7;stroke:none" />
    <path
       inkscape:connector-curvature="0"
       id="path680"
       d="m 463,222 c -0.97521,3.82776 2.27142,4.40988 0,0 z"
       style="fill:#e68aae;stroke:none" />
    <path
       inkscape:connector-curvature="0"
       id="path682"
       d="m 462,225 c -1.82714,7.98866 0.48426,9.48499 0,0 z"
       style="fill:#f3d8c4;stroke:none" />
    <path
       inkscape:connector-curvature="0"
       id="path684"
       d="m 19.3333,226.667 0.3334,0.666 -0.3334,-0.666 z M 20,229 c -0.975213,3.82776 2.27142,4.40988 0,0 z"
       style="fill:#dcadb7;stroke:none" />
    <path
       inkscape:connector-curvature="0"
       id="path686"
       d="m 181,229 c -0.5571,5.11606 0.72102,22.82601 0.58751,8.81269 C 181.39168,234.87513 181.19584,231.93756 181,229 z"
       style="fill:#6c132f;stroke:none" />
    <path
       inkscape:connector-curvature="0"
       id="path688"
       d="m 378,231 c -0.73537,6.12838 5.34671,-1.30378 0,0 z m 0,4 c 2.55455,6.81412 3.88219,-0.92211 0,0 z m -198,4 c -7.59234,6.63257 3.86531,2.18235 0,14.16187 -0.0291,14.60221 1.49283,1.40481 0.38054,-5.79009 C 180.25369,244.58119 180.12685,241.79059 180,239 z"
       style="fill:#e13c7b;stroke:none" />
    <path
       inkscape:connector-curvature="0"
       id="path690"
       d="m 101,240 c -0.55265,12.24085 1.74002,13.40496 0,0 z"
       style="fill:#250e14;stroke:none" />
    <path
       inkscape:connector-curvature="0"
       id="path692"
       d="m 457.333,240.667 0.334,0.666 -0.334,-0.666 z M 24,241 c -0.975213,3.82776 2.27142,4.40988 0,0 z"
       style="fill:#dcadb7;stroke:none" />
    <path
       inkscape:connector-curvature="0"
       id="path694"
       d="m 456,242 c -0.97521,3.82776 2.27142,4.40988 0,0 z"
       style="fill:#da8f81;stroke:none" />
    <path
       inkscape:connector-curvature="0"
       id="path696"
       d="m 100,244 c -0.745489,12.09626 7.48994,12.05574 0,0 z"
       style="fill:#9d1f4c;stroke:none" />
    <path
       inkscape:connector-curvature="0"
       id="path698"
       d="m 181,244 c -0.5841,11.39394 1.70248,10.82905 0,0 z"
       style="fill:#911023;stroke:none" />
    <path
       inkscape:connector-curvature="0"
       id="path700"
       d="m 455,245 c -0.97521,3.82776 2.27142,4.40988 0,0 z m -0.667,3.667 0.334,0.666 -0.334,-0.666 z"
       style="fill:#da8f81;stroke:none" />
    <path
       inkscape:connector-curvature="0"
       id="path702"
       d="m 27,249 c -0.975213,3.82776 2.27142,4.40988 0,0 z"
       style="fill:#e68aae;stroke:none" />
    <path
       inkscape:connector-curvature="0"
       id="path704"
       d="m 453.333,251.667 0.334,0.666 -0.334,-0.666 z M 28,252 c -0.975213,3.82776 2.27142,4.40988 0,0 z"
       style="fill:#da8f81;stroke:none" />
    <path
       inkscape:connector-curvature="0"
       id="path706"
       d="m 99,252 c -0.671168,8.22056 1.83099,9.2638 0,0 z"
       style="fill:#d06477;stroke:none" />
    <path
       inkscape:connector-curvature="0"
       id="path708"
       d="m 100,252 c -0.552652,12.24085 1.74002,13.40496 0,0 z"
       style="fill:#250e14;stroke:none" />
    <path
       inkscape:connector-curvature="0"
       id="path710"
       d="m 101,253 c -0.10473,5.23516 -0.60247,23.69207 2.50397,9.98411 C 101.27094,257.33437 106.26329,256.93345 101,253 z"
       style="fill:#b5697f;stroke:none" />
    <path
       inkscape:connector-curvature="0"
       id="path712"
       d="m 452.333,254.667 c 0.11133,0.222 0.11133,0.222 0,0 z"
       style="fill:#da8f81;stroke:none" />
    <path
       inkscape:connector-curvature="0"
       id="path714"
       d="m 181,255 c 0.33333,12.33333 0.66667,24.66667 1,37 0.29155,-6.20299 14.6391,7.72338 8.33609,-5.32783 -3.41611,-7.54132 -9.44414,-14.57962 -6.61513,-23.32364 C 184.76235,258.3225 180.4608,262.51891 181,255 z"
       style="fill:#9d1f4c;stroke:none" />
    <path
       inkscape:connector-curvature="0"
       id="path716"
       d="m 99,259 c -1.758063,42.66429 -5.717291,85.27129 -5,128 2.317554,-13.19768 0.857303,-30.74403 2.246152,-45.59185 1.545956,-20.45487 1.086302,-41.0504 2.802871,-61.43151 C 103.97705,272.89203 100.21117,266.58722 99,259 z"
       style="fill:#6c132f;stroke:none" />
    <path
       inkscape:connector-curvature="0"
       id="path718"
       d="m 449.333,262.667 0.334,0.666 -0.334,-0.666 z m -1,2 0.334,0.666 -0.334,-0.666 z"
       style="fill:#da8f81;stroke:none" />
    <path
       inkscape:connector-curvature="0"
       id="path720"
       d="m 176,267 c -0.73537,6.12838 5.34671,-1.30378 0,0 z"
       style="fill:#e13c7b;stroke:none" />
    <path
       inkscape:connector-curvature="0"
       id="path722"
       d="m 446,267 c -5.02903,8.88977 -11.33432,18.73578 -20.46563,25.41979 -2.31357,8.6872 0.75336,4.82193 -1.05877,14.76299 2.98992,11.38331 -9.14337,1.39511 -11.60697,14.09259 -4.34096,13.24199 -20.10592,21.27294 -19.86863,35.40609 -4.46605,-14.51354 -6.13934,34.47279 -1.01805,26.49763 14.74409,-39.11169 42.68565,-72.36869 54.28248,-112.67296 L 446,267 z"
       style="fill:#b13763;stroke:none" />
    <path
       inkscape:connector-curvature="0"
       id="path724"
       d="m 447,267 c -0.97521,3.82776 2.27142,4.40988 0,0 z"
       style="fill:#da8f81;stroke:none" />
    <path
       inkscape:connector-curvature="0"
       id="path726"
       d="m 179,269 c -3.90778,5.21037 -4.08806,5.45075 0,0 z"
       style="fill:#e13c7b;stroke:none" />
    <path
       inkscape:connector-curvature="0"
       id="path728"
       d="m 172,270 c 1.15411,6.90703 -0.89323,17.16432 2.24021,22 1.51393,-5.81014 -0.42877,-14.92337 -0.24021,-22 l -1.24021,0 L 172,270 z"
       style="fill:#250e14;stroke:none" />
    <path
       inkscape:connector-curvature="0"
       id="path730"
       d="m 446,270 c -2.17407,5.33733 0.66096,5.17092 0,0 z"
       style="fill:#b5697f;stroke:none" />
    <path
       inkscape:connector-curvature="0"
       id="path732"
       d="m 174,272 c -0.70011,10.49601 1.59322,15.45065 0.17605,2.11261 L 174.07306,272.87668 174,272 z"
       style="fill:#975d66;stroke:none" />
    <path
       inkscape:connector-curvature="0"
       id="path734"
       d="m 381,272 c -0.73537,6.12838 5.34671,-1.30378 0,0 z"
       style="fill:#b92359;stroke:none" />
    <path
       inkscape:connector-curvature="0"
       id="path736"
       d="m 100,273 c 2.05251,4.10503 3.10845,6.2169 0,0 z"
       style="fill:#b5697f;stroke:none" />
    <path
       inkscape:connector-curvature="0"
       id="path738"
       d="m 444.333,275.667 0.334,0.666 -0.334,-0.666 z m -406.9997,1 0.3334,0.666 -0.3334,-0.666 z"
       style="fill:#dcadb7;stroke:none" />
    <path
       inkscape:connector-curvature="0"
       id="path740"
       d="m 172,276 c 1.52897,5.4996 -5.21929,18.82935 3,18 -1,-6 -2,-12 -3,-18 z"
       style="fill:#6c132f;stroke:none" />
    <path
       inkscape:connector-curvature="0"
       id="path742"
       d="m 177,278 c 3.27816,3.27816 4.16275,4.16275 0,0 z"
       style="fill:#9d1f4c;stroke:none" />
    <path
       inkscape:connector-curvature="0"
       id="path744"
       d="m 385,278 c -0.70011,10.49601 1.59322,15.45065 0.17605,2.11261 L 385.07306,278.87668 385,278 z"
       style="fill:#911023;stroke:none" />
    <path
       inkscape:connector-curvature="0"
       id="path746"
       d="m 99,279 c 1.08722,7.61053 2.86322,20.04256 0.772256,5.4058 C 99.514838,282.60386 99.257419,280.80193 99,279 z m -2,1 c -0.767288,8.5634 1.425838,18.63397 0.334163,4.34411 C 97.222775,282.89608 97.111388,281.44804 97,280 z"
       style="fill:#b13763;stroke:none" />
    <path
       inkscape:connector-curvature="0"
       id="path748"
       d="m 442.333,280.667 0.334,0.666 -0.334,-0.666 z m -402.9997,1 0.3334,0.666 -0.3334,-0.666 z"
       style="fill:#dcadb7;stroke:none" />
    <path
       inkscape:connector-curvature="0"
       id="path750"
       d="m 168,282 c -6.67409,7.91573 3.04391,15.78074 2,3.79896 -0.5874,-1.75723 1.57251,-5.03075 -2,-3.79896 z"
       style="fill:#9d1f4c;stroke:none" />
    <path
       inkscape:connector-curvature="0"
       id="path752"
       d="m 177,282 c -0.73537,6.12838 5.34671,-1.30378 0,0 z"
       style="fill:#e13c7b;stroke:none" />
    <path
       inkscape:connector-curvature="0"
       id="path754"
       d="m 441.333,282.667 0.334,0.666 -0.334,-0.666 z m -399.9997,4 0.3334,0.666 -0.3334,-0.666 z"
       style="fill:#dcadb7;stroke:none" />
    <path
       inkscape:connector-curvature="0"
       id="path756"
       d="m 42.3333,288.667 c 0.111133,0.222 0.111133,0.222 0,0 z"
       style="fill:#e68aae;stroke:none" />
    <path
       inkscape:connector-curvature="0"
       id="path758"
       d="m 183,289 c 9.35597,7.27687 9.80428,7.62555 0.18935,0.14727 L 183,289 z"
       style="fill:#6c132f;stroke:none" />
    <path
       inkscape:connector-curvature="0"
       id="path760"
       d="m 177,290 c -8.33046,10.88855 12.18872,7.09167 3.64687,1.21562 C 179.43125,290.81042 178.21562,290.40521 177,290 z"
       style="fill:#e13c7b;stroke:none" />
    <path
       inkscape:connector-curvature="0"
       id="path762"
       d="m 166,295 c 5.21037,-3.90778 5.45075,-4.08806 0,0 z"
       style="fill:#e68aae;stroke:none" />
    <path
       inkscape:connector-curvature="0"
       id="path764"
       d="m 170,292 c -4.02072,6.59741 6.06026,4.91683 0,0 z"
       style="fill:#975d66;stroke:none" />
    <path
       inkscape:connector-curvature="0"
       id="path766"
       d="m 183,292 c 6.23939,3.1197 8.19423,4.09712 0,0 z"
       style="fill:#e7bc8a;stroke:none" />
    <path
       inkscape:connector-curvature="0"
       id="path768"
       d="m 155,293 c -0.88827,5.17858 -0.74421,23.8187 0,9.79896 0,-3.26632 0,-6.53264 0,-9.79896 z"
       style="fill:#6c132f;stroke:none" />
    <path
       inkscape:connector-curvature="0"
       id="path770"
       d="m 171,295 c 2.43041,-1.62028 5.21007,-3.47338 0,0 z"
       style="fill:#e7bc8a;stroke:none" />
    <path
       inkscape:connector-curvature="0"
       id="path772"
       d="m 163,302 c 4.10592,-9.7644 14.41565,4.65165 7,-8 -2.33333,2.66667 -4.66667,5.33333 -7,8 z"
       style="fill:#5e4547;stroke:none" />
    <path
       inkscape:connector-curvature="0"
       id="path774"
       d="m 174,294 c -7.62876,2.69346 2.53723,7.14412 0,0 z"
       style="fill:#250e14;stroke:none" />
    <path
       inkscape:connector-curvature="0"
       id="path776"
       d="m 182,296 c 9.53812,2.38567 -10.85098,5.82784 -11.90532,2.67574 -10.268,0.18221 1.23735,5.7817 8.53826,2.81934 C 187.09468,302.61129 203.52506,299.00814 182,296 z"
       style="fill:#9e654a;stroke:none" />
    <path
       inkscape:connector-curvature="0"
       id="path778"
       d="m 162,301 c 5.16544,-4.14988 7.05947,-9.61793 0,0 z"
       style="fill:#f3d8c4;stroke:none" />
    <path
       inkscape:connector-curvature="0"
       id="path780"
       d="m 183,295 c -0.91393,2.7418 -1.67562,5.02686 0,0 z"
       style="fill:#250e14;stroke:none" />
    <path
       inkscape:connector-curvature="0"
       id="path782"
       d="m 188,295 c 5.20072,5.20072 6.61335,6.61335 0,0 z"
       style="fill:#ffffff;stroke:none" />
    <path
       inkscape:connector-curvature="0"
       id="path784"
       d="m 386,295 c -0.63153,12.15147 1.78448,15.10192 0,0 z"
       style="fill:#911023;stroke:none" />
    <path
       inkscape:connector-curvature="0"
       id="path786"
       d="m 169,296 c 3.27816,3.27816 4.16275,4.16275 0,0 z"
       style="fill:#f3d8c4;stroke:none" />
    <path
       inkscape:connector-curvature="0"
       id="path788"
       d="m 174,296 c 8.14455,2.78847 12.17611,1.1857 0,0 z"
       style="fill:#6c132f;stroke:none" />
    <path
       inkscape:connector-curvature="0"
       id="path790"
       d="m 184,296 c -0.73537,6.12838 5.34671,-1.30378 0,0 z"
       style="fill:#b4b3b3;stroke:none" />
    <path
       inkscape:connector-curvature="0"
       id="path792"
       d="m 96,297 c -0.671168,8.22056 1.830994,9.2638 0,0 z m 2,0 c 2.11436,8.45744 2.6921,10.7684 0,0 z"
       style="fill:#b13763;stroke:none" />
    <path
       inkscape:connector-curvature="0"
       id="path794"
       d="m 193,299 c -7.41242,7.38075 -46.28051,-0.29827 -20.02404,5.6791 C 178.92582,303.97518 190.35167,305.29342 193,299 z m 241.333,0.667 0.334,0.666 -0.334,-0.666 z"
       style="fill:#dcadb7;stroke:none" />
    <path
       inkscape:connector-curvature="0"
       id="path796"
       d="m 152,300 c -1,7.66667 -2,15.33333 -3,23 2.7661,-5.35344 1.74094,-15.95639 3,-23 z"
       style="fill:#b92359;stroke:none" />
    <path
       inkscape:connector-curvature="0"
       id="path798"
       d="m 153,300 c -1.05551,5.09716 -2.86302,22.71251 0.21612,8.91938 C 152.64056,306.7261 157.48461,298.70881 153,300 z"
       style="fill:#b5697f;stroke:none" />
    <path
       inkscape:connector-curvature="0"
       id="path800"
       d="m 177,301 c 7.34045,2.41369 16.65381,0.40047 2.11261,0.17605 L 177.87668,301.07306 177,301 z"
       style="fill:#989390;stroke:none" />
    <path
       inkscape:connector-curvature="0"
       id="path802"
       d="m 48,302 c 0.739396,5.81608 3.047567,4.53941 0,0 z"
       style="fill:#dcadb7;stroke:none" />
    <path
       inkscape:connector-curvature="0"
       id="path804"
       d="m 95,307 c -0.671168,8.22056 1.830994,9.2638 0,0 z"
       style="fill:#b13763;stroke:none" />
    <path
       inkscape:connector-curvature="0"
       id="path806"
       d="m 98,307 c -0.735372,6.12838 5.34671,-1.30378 0,0 z m 62,0 c 0.36748,14.40463 -2.81532,29.37652 1.02662,43.20263 -0.11815,20.17333 3.2879,-0.89255 1.63954,-8.56234 C 162.44411,330.09353 162.22205,318.54676 162,307 l -1.24021,0 L 160,307 z"
       style="fill:#b92359;stroke:none" />
    <path
       inkscape:connector-curvature="0"
       id="path808"
       d="m 154,309 c 0.91393,2.7418 1.67562,5.02686 0,0 z m 233,0 c 0.01,26.64833 5.93172,53.58522 0,80 7.91735,-20.32045 0.4017,-45.00673 1.91696,-66.94215 C 388.87033,317.65972 388.71489,313.1217 387,309 z m -290,1 c -1.025801,5.15297 2.056524,8.44232 0,0 z"
       style="fill:#9d1f4c;stroke:none" />
    <path
       inkscape:connector-curvature="0"
       id="path810"
       d="m 98,311 c -0.735372,6.12838 5.34671,-1.30378 0,0 z"
       style="fill:#b92359;stroke:none" />
    <path
       inkscape:connector-curvature="0"
       id="path812"
       d="m 153,311 c -3.66667,14 -7.33333,28 -11,42 3.86807,-5.65188 4.54541,-15.4783 7.18469,-22.73785 C 151.06119,323.97857 151.71957,317.41787 153,311 z"
       style="fill:#6c132f;stroke:none" />
    <path
       inkscape:connector-curvature="0"
       id="path814"
       d="m 428.333,312.667 0.334,0.666 -0.334,-0.666 z M 53,314 c 1.620276,2.43041 3.473382,5.21007 0,0 z"
       style="fill:#dcadb7;stroke:none" />
    <path
       inkscape:connector-curvature="0"
       id="path816"
       d="m 95,314 c -0.584099,11.39394 1.702482,10.82905 0,0 z"
       style="fill:#911023;stroke:none" />
    <path
       inkscape:connector-curvature="0"
       id="path818"
       d="m 427.333,314.667 0.334,0.666 -0.334,-0.666 z m -1,2 0.334,0.666 -0.334,-0.666 z m -368.9997,5 0.3334,0.666 -0.3334,-0.666 z m 365.9997,1 0.334,0.666 -0.334,-0.666 z"
       style="fill:#dcadb7;stroke:none" />
    <path
       inkscape:connector-curvature="0"
       id="path820"
       d="m 94,323 c -0.564192,5.1931 0.742814,23.81521 0.61319,9.81103 C 94.408793,329.54069 94.204397,326.27034 94,323 z"
       style="fill:#b5697f;stroke:none" />
    <path
       inkscape:connector-curvature="0"
       id="path822"
       d="m 95,346 c 0,8 0,16 0,24 2.103749,-5.43947 -0.297762,-15.20039 0.07065,-22.3044 L 95.01902,346.45647 95,346 z"
       style="fill:#5e4547;stroke:none" />
    <path
       inkscape:connector-curvature="0"
       id="path824"
       d="m 143,350 c 1.03644,6.21866 1.24166,7.44996 0,0 z"
       style="fill:#9d1f4c;stroke:none" />
    <path
       inkscape:connector-curvature="0"
       id="path826"
       d="m 73.3333,353.667 c 0.111133,0.222 0.111133,0.222 0,0 z"
       style="fill:#dcadb7;stroke:none" />
    <path
       inkscape:connector-curvature="0"
       id="path828"
       d="m 144,355 c 4.16075,5.20093 5.6321,7.04012 0,0 z"
       style="fill:#6c132f;stroke:none" />
    <path
       inkscape:connector-curvature="0"
       id="path830"
       d="m 171,359 c 2.9945,2.19175 22.57476,-0.80772 19.75979,0 -6.5866,0 -13.17319,0 -19.75979,0 z"
       style="fill:#e68aae;stroke:none" />
    <path
       inkscape:connector-curvature="0"
       id="path832"
       d="m 165,361 c 5.43905,2.09391 15.19922,-0.32525 22.30268,0.0303 C 182.79811,360.96245 171.76791,361.0183 165,361 z"
       style="fill:#975d66;stroke:none" />
    <path
       inkscape:connector-curvature="0"
       id="path834"
       d="m 186,359 c 4.09229,2.28908 13.94156,0.86047 0,0 z"
       style="fill:#333232;stroke:none" />
    <path
       inkscape:connector-curvature="0"
       id="path836"
       d="m 148,360 c -0.67341,4.16075 20.98027,2.11594 12.51958,0 -4.17319,0 -8.34639,0 -12.51958,0 z"
       style="fill:#6c132f;stroke:none" />
    <path
       inkscape:connector-curvature="0"
       id="path838"
       d="m 163,360 c 11.24625,4.4727 2.54467,1.55448 0.39046,0.0976 L 163,360 z"
       style="fill:#b4b3b3;stroke:none" />
    <path
       inkscape:connector-curvature="0"
       id="path840"
       d="m 167,360 c 4.09229,2.28908 13.94156,0.86047 0,0 z"
       style="fill:#b5697f;stroke:none" />
    <path
       inkscape:connector-curvature="0"
       id="path842"
       d="m 188,360 c 4.63051,2.4005 9.52508,0.41011 0,0 z m -12,1 c 4.63051,2.4005 9.52508,0.41011 0,0 z"
       style="fill:#e7bc8a;stroke:none" />
    <path
       inkscape:connector-curvature="0"
       id="path844"
       d="m 164,366 c 10.33333,-1 20.66667,-2 31,-3 -3.30042,-4.33753 -26.42394,-3.01339 -31,3 z"
       style="fill:#f3d8c4;stroke:none" />
    <path
       inkscape:connector-curvature="0"
       id="path846"
       d="m 191,363 c 1.91089,2.43359 6.20566,0.37989 0,0 z"
       style="fill:#da8f81;stroke:none" />
    <path
       inkscape:connector-curvature="0"
       id="path848"
       d="m 180,364 c 1.91089,2.43359 6.20566,0.37989 0,0 z"
       style="fill:#dcadb7;stroke:none" />
    <path
       inkscape:connector-curvature="0"
       id="path850"
       d="m 93,365 c -0.773562,8.23547 1.862675,12.26833 0,0 z"
       style="fill:#b13763;stroke:none" />
    <path
       inkscape:connector-curvature="0"
       id="path852"
       d="m 166,365 c 7.2232,2.25111 16.74396,0.76128 0,0 z"
       style="fill:#da8f81;stroke:none" />
    <path
       inkscape:connector-curvature="0"
       id="path854"
       d="m 177,366 c 5.3846,1.92302 19.61196,-0.99073 4.31854,0 -1.43951,0 -2.87903,0 -4.31854,0 z"
       style="fill:#911023;stroke:none" />
    <path
       inkscape:connector-curvature="0"
       id="path856"
       d="m 166,366 c 7.2232,2.25111 16.74396,0.76128 0,0 z"
       style="fill:#9d1f4c;stroke:none" />
    <path
       inkscape:connector-curvature="0"
       id="path858"
       d="m 394,377 c -2.17407,5.33733 0.66096,5.17092 0,0 z"
       style="fill:#dcadb7;stroke:none" />
    <path
       inkscape:connector-curvature="0"
       id="path860"
       d="m 391.333,383.667 c 0.11133,0.222 0.11133,0.222 0,0 z"
       style="fill:#b4b3b3;stroke:none" />
    <path
       inkscape:connector-curvature="0"
       id="path862"
       d="m 93,388 c 8.60385,5.22559 48.90953,0.71384 44.52014,0.94724 C 122.6801,388.63149 107.84005,388.31575 93,388 z"
       style="fill:#6c132f;stroke:none" />
    <path
       inkscape:connector-curvature="0"
       id="path864"
       d="m 140,389 c 5.44419,2.33039 15.21358,0.33559 22.32375,1 39.22542,0 78.45083,0 117.67625,0 -19.76263,-5.25564 -40.39341,0.48447 -60.60312,-1 -26.46563,0 -52.93125,0 -79.39688,0 z"
       style="fill:#9d1f4c;stroke:none" />
    <path
       inkscape:connector-curvature="0"
       id="path866"
       d="m 387,389 c -0.79892,5.68553 1.94012,4.84109 0,0 z"
       style="fill:#989390;stroke:none" />
    <path
       inkscape:connector-curvature="0"
       id="path868"
       d="m 98,390 c 12.12061,13.41522 33.09017,4.37606 48.96083,6 44.34639,0 88.69278,0 133.03917,0 -1.95415,-2.10283 -23.85868,-0.33935 -11.03955,-2.0616 25.04081,-0.0141 50.28574,-1.21702 75.19949,-0.49119 7.29726,5.68173 13.95217,0.10102 21.56462,-0.32209 6.59335,-0.95065 16.78284,1.67375 21.27544,-1.36533 -7.15779,-1.80166 -17.61909,-0.31121 -26.04422,-0.84991 C 273.30385,390.60659 185.65193,390.30329 98,390 z"
       style="fill:#250e14;stroke:none" />
    <path
       inkscape:connector-curvature="0"
       id="path870"
       d="m 280,390 c 5.44419,2.33039 15.21358,0.33559 22.32375,1 28.22542,0 56.45083,0 84.67625,0 -35.65296,-1.54346 -71.32605,-0.85715 -107,-1 z"
       style="fill:#6c132f;stroke:none" />
    <path
       inkscape:connector-curvature="0"
       id="path872"
       d="m 95,392 c -2.366914,7.45494 14.15263,6.33167 0,0 z"
       style="fill:#f3d8c4;stroke:none" />
    <path
       inkscape:connector-curvature="0"
       id="path874"
       d="m 96,392 c 5.05098,8.69673 8.19822,-1.2388 0,0 z"
       style="fill:#736f71;stroke:none" />
    <path
       inkscape:connector-curvature="0"
       id="path876"
       d="m 264,394 c 1.52591,2.24381 22.73021,0.11866 12,2 5.44419,2.33039 15.21358,0.33559 22.32375,1 17.22542,0 34.45083,0 51.67625,0 -18.62156,-10.04558 -44.39365,-0.82657 -65.7165,-3.31125 C 277.5229,393.82526 270.7618,393.94398 264,394 z m 92,3 c 8.66667,0 17.33333,0 26,0 -0.74988,-4.73282 -18.201,-8.33851 -26,0 z"
       style="fill:#333232;stroke:none" />
    <path
       inkscape:connector-curvature="0"
       id="path878"
       d="m 379,394 c 6.82162,6.03633 -10.70041,1.67644 -15.60312,3 -17.1323,0 -34.26459,0 -51.39688,0 5.44419,2.33039 15.21358,0.33559 22.32375,1 16.22542,0 32.45083,0 48.67625,0 1.35362,-5.99382 2.03743,-5.3411 -4,-4 z"
       style="fill:#5e4547;stroke:none" />
    <path
       inkscape:connector-curvature="0"
       id="path880"
       d="m 383,394 c -0.79892,5.68553 1.94012,4.84109 0,0 z"
       style="fill:#989390;stroke:none" />
    <path
       inkscape:connector-curvature="0"
       id="path882"
       d="m 101,396 c 5.44419,2.33039 15.21358,0.33559 22.32375,1 16.89208,0 33.78417,0 50.67625,0 -24.31494,-1.52045 -48.65472,-0.87095 -73,-1 z"
       style="fill:#5e4547;stroke:none" />
    <path
       inkscape:connector-curvature="0"
       id="path884"
       d="m 174,396 c 5.44419,2.33039 15.21358,0.33559 22.32375,1 4.80815,-0.60295 27.17226,1.41123 17.00637,-1.42396 C 200.31721,393.10146 187.0827,395.90024 174,396 z"
       style="fill:#736f71;stroke:none" />
    <path
       inkscape:connector-curvature="0"
       id="path886"
       d="m 218,396 c 5.44419,2.33039 15.21358,0.33559 22.32375,1 11.89208,0 23.78417,0 35.67625,0 -19.31558,-1.47793 -38.64857,-0.89639 -58,-1 z"
       style="fill:#5e4547;stroke:none" />
    <path
       inkscape:connector-curvature="0"
       id="path888"
       d="m 103,397 c 6.05893,2.3981 14.93877,0.60199 0,0 z"
       style="fill:#b4b3b3;stroke:none" />
    <path
       inkscape:connector-curvature="0"
       id="path890"
       d="m 112,397 c 5.44419,2.33039 15.21358,0.33559 22.32375,1 13.89208,0 27.78417,0 41.67625,0 -21.30811,-1.53828 -42.6566,-0.86168 -64,-1 z"
       style="fill:#989390;stroke:none" />
    <path
       inkscape:connector-curvature="0"
       id="path892"
       d="m 176,397 c 5.44419,2.33039 15.21358,0.33559 22.32375,1 24.55875,0 49.1175,0 73.67625,0 -31.98355,-1.57074 -63.99244,-0.84143 -96,-1 z"
       style="fill:#b4b3b3;stroke:none" />
    <path
       inkscape:connector-curvature="0"
       id="path894"
       d="m 272,397 c 5.44419,2.33039 15.21358,0.33559 22.32375,1 6.37769,-0.14781 27.82693,0.85568 8.59941,-2.01714 C 292.6022,395.10706 282.31182,396.88165 272,397 z"
       style="fill:#989390;stroke:none" />
    <path
       inkscape:connector-curvature="0"
       id="path896"
       d="m 312,398 c 5.44419,2.33039 15.21358,0.33559 22.32375,1 4.80815,-0.60295 27.17226,1.41123 17.00637,-1.42396 C 338.31721,395.10146 325.0827,397.90024 312,398 z"
       style="fill:#b4b3b3;stroke:none" />
    <path
       inkscape:connector-curvature="0"
       id="path898"
       d="m 356,398 c 5.44419,2.33039 15.21358,0.33559 22.32375,1 4.7426,-0.0553 -13.02358,-0.56051 -17.15123,-0.7931 C 359.44835,398.13793 357.72417,398.06897 356,398 z"
       style="fill:#989390;stroke:none" />
    <path
       inkscape:connector-curvature="0"
       id="path900"
       d="m 354,399 c 5.44419,2.33039 15.21358,0.33559 22.32375,1 10.5278,0.0512 -9.91168,-0.47079 -13.91413,-0.68853 C 359.60641,399.20764 356.80321,399.10382 354,399 z"
       style="fill:#f3d8c4;stroke:none" />
  </g>
</svg>
